<svg width="17" height="16" viewBox="0 0 17 16" fill="none" xmlns="http://www.w3.org/2000/svg">
<path fill-rule="evenodd" clip-rule="evenodd" d="M5.3478 0.800003H11.6421C14.611 0.800003 15.692 1.88103 15.692 4.84994V11.1442C15.692 14.1131 14.6051 15.2 11.6421 15.2H5.3478C2.37889 15.2 1.29199 14.1131 1.29199 11.1442V4.84994C1.29199 1.88103 2.37889 0.800003 5.3478 0.800003ZM7.2631 9.8771L7.4374 9.48934H8.29517L8.46359 9.8771H8.8631L8.03666 7.99705H7.70178L6.87534 9.8771H7.2631ZM8.15221 9.14858H7.57448L7.86237 8.47685L8.15221 9.14858ZM14.09 7.99705H13.7081V9.8771H14.09V7.99705ZM13.2577 9.53634H12.21V9.0722H12.9052V8.72557H12.21V8.34369H13.2166V7.99705H11.834V9.8771H13.2577V9.53634ZM11.5265 7.99705H11.127L10.7118 9.2935L10.2829 7.99705H9.96959L9.54658 9.2935L9.12944 7.99705H8.71818L9.37816 9.88298H9.6915L10.1204 8.64528L10.5493 9.88298H10.8724L11.5265 7.99705ZM6.6795 7.99705H6.29762V9.07612C6.29762 9.38163 6.14682 9.55005 5.86873 9.55005C5.59064 9.55005 5.43985 9.38163 5.43985 9.06437V7.99901H5.05796V9.07416C5.05796 9.60489 5.35368 9.91235 5.86286 9.91235C6.38379 9.91235 6.6795 9.60097 6.6795 9.06241V7.99705ZM4.52724 7.99705H4.14535V8.75494H3.28367V7.99705H2.90178V9.88298H3.28367V9.11333H4.14535V9.88298H4.52724V7.99705ZM6.09982 3.20684C6.09982 4.52679 7.1691 5.60195 8.49493 5.60195C9.81488 5.60195 10.89 4.52483 10.89 3.20684H10.5551C10.5551 4.34074 9.62883 5.26119 8.49493 5.26119C7.36102 5.26119 6.43471 4.34074 6.43471 3.20684H6.09982Z" fill="#0B002E"/>
</svg>
