<svg width="114" height="40" viewBox="0 0 114 40" fill="none" xmlns="http://www.w3.org/2000/svg">
<g clip-path="url(#clip0_1895_34504)">
<path d="M111.734 8.94079L114.198 2.40281H113.262L111.485 7.32966L109.709 2.40281H108.75L111.035 8.50259L110.964 8.69247C110.774 9.27236 110.442 9.54551 109.791 9.54551C109.566 9.54551 109.329 9.52213 109.116 9.47393V10.2919C109.306 10.327 109.578 10.3518 109.839 10.3518C110.799 10.3518 111.355 9.93697 111.734 8.94225M104.899 3.0791C106.107 3.0791 106.759 4.02708 106.759 5.31832C106.759 6.60955 106.107 7.54438 104.899 7.54438C103.691 7.54438 103.04 6.60809 103.04 5.31832C103.04 4.02854 103.691 3.0791 104.899 3.0791ZM105.089 2.29764C104.296 2.29764 103.608 2.58247 103.135 3.24562V0H102.247V8.22067H103.1V7.36764C103.538 8.0191 104.249 8.3273 105.114 8.3273C106.477 8.3273 107.696 7.26101 107.696 5.31832C107.696 3.37562 106.5 2.29764 105.091 2.29764M94.489 3.0791C95.697 3.0791 96.3484 4.02708 96.3484 5.31832C96.3484 6.60955 95.697 7.54438 94.489 7.54438C93.281 7.54438 92.6296 6.60809 92.6296 5.31832C92.6296 4.02854 93.281 3.0791 94.489 3.0791ZM94.2991 2.29764C92.8896 2.29764 91.6933 3.37562 91.6933 5.31832C91.6933 7.26101 92.9129 8.3273 94.2757 8.3273C95.1404 8.3273 95.8518 8.0191 96.29 7.36764V8.22067H97.143V0H96.2549V3.24562C95.7817 2.58247 95.0937 2.29764 94.3006 2.29764M85.7717 4.88011C85.9251 3.71888 86.6247 3.06742 87.6078 3.06742C88.5908 3.06742 89.2773 3.69551 89.3255 4.88011H85.7717ZM84.8354 5.30663C84.8354 7.21427 86.02 8.3273 87.5829 8.3273C88.826 8.3273 89.8806 7.7109 90.142 6.45618H89.2057C88.9925 7.20258 88.341 7.55753 87.5596 7.55753C86.4348 7.55753 85.8067 6.62124 85.7585 5.60315H90.2355C90.2472 5.47315 90.2472 5.33 90.2472 5.27157C90.2472 3.29382 89.1108 2.2991 87.5946 2.2991C85.9835 2.2991 84.8354 3.47202 84.8354 5.30809M83.8056 2.32393C83.604 2.31225 83.4974 2.31225 83.3908 2.31225C82.7043 2.31225 81.9345 2.65551 81.5547 3.47348V2.40719H80.7017V8.2236H81.5898V5.01303C81.5898 3.88831 82.3479 3.24854 83.2593 3.24854C83.4127 3.24854 83.5909 3.24854 83.8042 3.26022V2.32393H83.8056ZM74.3887 4.88303C74.542 3.7218 75.2417 3.07034 76.2247 3.07034C77.2078 3.07034 77.8943 3.69843 77.9425 4.88303H74.3887ZM73.4524 5.30955C73.4524 7.21719 74.637 8.33022 76.1999 8.33022C77.4429 8.33022 78.4975 7.71382 78.759 6.4591H77.8227C77.6094 7.20551 76.958 7.56045 76.1765 7.56045C75.0518 7.56045 74.4237 6.62416 74.3755 5.60607H78.8525C78.8642 5.47607 78.8642 5.33292 78.8642 5.27449C78.8642 3.29674 77.7263 2.30202 76.2116 2.30202C74.6005 2.30202 73.4524 3.47494 73.4524 5.31101M68.1457 3.36831L69.4837 8.22506H70.6216L72.316 2.40865H71.4162L70.0417 7.38371L68.692 2.40865H67.6257L66.2761 7.38371L64.9016 2.40865H63.977L65.6714 8.22506H66.8092L68.1472 3.36831H68.1457ZM60.0434 7.55022C58.8354 7.55022 58.1839 6.61393 58.1839 5.32416C58.1839 4.03438 58.8354 3.08494 60.0434 3.08494C61.2514 3.08494 61.9028 4.03292 61.9028 5.32416C61.9028 6.61539 61.2514 7.55022 60.0434 7.55022ZM60.0434 8.33168C61.6779 8.33168 62.8391 7.19382 62.8391 5.3227C62.8391 3.45157 61.6779 2.30202 60.0434 2.30202C58.4089 2.30202 57.2476 3.45157 57.2476 5.3227C57.2476 7.19382 58.4089 8.33168 60.0434 8.33168ZM53.0438 7.55022C51.8358 7.55022 51.1844 6.60225 51.1844 5.31101C51.1844 4.01978 51.8358 3.08494 53.0438 3.08494C54.2518 3.08494 54.9033 4.02124 54.9033 5.31101C54.9033 6.60079 54.2518 7.55022 53.0438 7.55022ZM53.2337 8.33168C54.6433 8.33168 55.8395 7.25371 55.8395 5.31101C55.8395 3.36831 54.6199 2.30202 53.2571 2.30202C52.3924 2.30202 51.681 2.61022 51.2428 3.26169V2.40865H50.3898V10.2978H51.2779V7.38371C51.7511 8.04685 52.4391 8.33168 53.2322 8.33168M48.2572 4.55292C48.2572 2.97685 47.3925 2.30202 46.2429 2.30202C45.3066 2.30202 44.7151 2.70517 44.2885 3.3318C43.9687 2.66865 43.3639 2.30202 42.5124 2.30202C41.6608 2.30202 41.0794 2.75191 40.7479 3.27337V2.40865H39.8948V8.22506H40.7829V4.96775C40.7829 3.78315 41.4811 3.08494 42.2874 3.08494C43.1872 3.08494 43.6371 3.5582 43.6371 4.6727V8.22652H44.5252V4.76764C44.5252 3.65461 45.2833 3.08641 46.0297 3.08641C46.9061 3.08641 47.3793 3.55966 47.3793 4.5909V8.22798H48.2557V4.55584L48.2572 4.55292ZM33.5818 4.88449C33.7352 3.72326 34.4348 3.0718 35.4179 3.0718C36.4009 3.0718 37.0874 3.69989 37.1356 4.88449H33.5818ZM32.6455 5.31101C32.6455 7.21865 33.8301 8.33168 35.393 8.33168C36.6361 8.33168 37.6907 7.71528 37.9521 6.46056H37.0158C36.8026 7.20697 36.1511 7.56191 35.3697 7.56191C34.2449 7.56191 33.6169 6.62562 33.5687 5.60753H38.0456C38.0573 5.47753 38.0573 5.33438 38.0573 5.27595C38.0573 3.2982 36.9209 2.30348 35.4047 2.30348C33.7936 2.30348 32.6455 3.4764 32.6455 5.31247" fill="#0B002E"/>
<path d="M97.2766 21.0865H99.7393V18.6238H97.2766V21.0865ZM43.2156 27.1892L38.0769 25.9476C36.3431 25.5416 35.4433 24.5775 35.4433 23.1432C35.4433 21.1523 37.2853 19.8245 40.0255 19.8245C42.7657 19.8245 44.5434 21.237 44.7362 23.5507L44.7581 23.8501H46.9418V23.5083C46.8351 20.1678 44.0087 17.7912 40.0269 17.7912C36.0451 17.7912 33.283 20.0611 33.283 23.1651C33.283 25.6482 34.8036 27.3397 37.5219 28.0466L42.6386 29.2882C44.3724 29.6957 45.2722 30.6802 45.2722 32.1146C45.2722 34.2121 43.3237 35.5194 40.1759 35.5194C37.0282 35.5194 35.1235 34.1274 34.9087 31.7085L34.8868 31.4091H32.7031V31.7305C32.8959 35.3062 35.7647 37.5118 40.154 37.5118C44.5433 37.5118 47.4121 35.35 47.4121 32.1161C47.4121 29.611 45.9135 27.8553 43.2156 27.1921M56.6407 23.3593C52.8502 23.3593 50.3028 26.2076 50.3028 30.4246C50.3028 34.6416 52.8502 37.468 56.6407 37.468C60.4311 37.468 63.0209 34.5773 63.0209 30.4246C63.0209 26.2719 60.4092 23.3593 56.6407 23.3593ZM56.6407 35.4566C54.0932 35.4566 52.4441 33.4862 52.4441 30.4246C52.4441 27.363 54.0713 25.3283 56.6407 25.3283C59.21 25.3283 60.8372 27.2988 60.8372 30.4246C60.8372 33.5505 59.2319 35.4566 56.6407 35.4566ZM66.2972 37.2343H68.3743V18.0936H66.2972V37.2343ZM92.953 23.3608C91.3039 23.3608 89.9981 24.0239 89.3349 25.4379V23.5536H87.3002V37.2343H89.3773V29.4839C89.3773 27.2141 90.3194 25.4802 92.5893 25.4802C93.2525 25.4802 94.0032 25.5664 94.4955 25.6511V23.5741C94.1537 23.4674 93.511 23.3593 92.9545 23.3593M97.4504 37.2328H99.548V23.5521H97.4504V37.2328ZM110.554 29.6534L107.814 29.1188C105.994 28.7551 105.759 27.9838 105.759 27.3411C105.759 26.0996 106.958 25.3064 108.756 25.3064C110.554 25.3064 111.711 26.12 111.818 27.5325L111.84 27.8115H113.981L113.959 27.4682C113.852 25.5839 112.418 23.3579 108.756 23.3579C105.801 23.3579 103.639 25.0493 103.639 27.3835C103.639 29.3539 104.839 30.5736 107.3 31.0878L110.02 31.6224C111.84 32.008 112.097 32.715 112.097 33.3781C112.097 34.7059 110.897 35.4975 108.82 35.4975C106.743 35.4975 105.459 34.5978 105.351 33.0787L105.329 32.7792H103.188L103.21 33.1429C103.381 35.797 105.544 37.468 108.819 37.468C112.094 37.468 114.215 35.7984 114.215 33.3577C114.215 31.4091 112.995 30.1675 110.554 29.6534ZM77.7956 23.3593C75.4614 23.3593 72.657 24.43 72.4641 27.4697L72.4422 27.8129H74.5398L74.5617 27.5339C74.7968 25.6716 76.424 25.286 77.7941 25.286C79.3352 25.286 81.199 25.7578 81.199 27.9415V28.6046L76.424 29.4182C73.5757 29.9324 72.0347 31.3448 72.0347 33.5285C72.0347 35.3266 73.2339 37.4256 76.5745 37.4256C78.5011 37.4256 80.1707 36.6339 81.1771 35.1996V37.2343H83.2118V27.8144C83.2118 25.0099 81.1771 23.3608 77.7956 23.3608M76.703 31.2616L81.199 30.4903V31.2397C81.199 34.1946 78.951 35.5224 76.7454 35.5224C75.1182 35.5224 74.1541 34.773 74.1541 33.5738C74.1541 32.3746 74.9677 31.5829 76.7015 31.2616" fill="#0B002E"/>
<path d="M3.12 19.3507C3.03382 19.3507 2.94034 19.3902 2.86292 19.4807C1.00494 21.6221 0 24.3784 0 27.2062C0 33.4535 5.12259 39.0377 11.3699 39.0377C14.0312 39.0377 16.1258 37.3813 16.1258 34.72C16.1258 32.4486 14.4811 30.8506 12.0798 29.834L8.4836 28.3076C5.58562 27.0777 3.1945 24.8531 3.1945 21.717C3.1945 21.1853 3.28944 20.2622 3.39607 19.7407C3.44427 19.5114 3.29528 19.3507 3.12146 19.3507M12.293 15.3748C9.63169 15.3748 7.53708 17.0312 7.53708 19.694C7.53708 21.9653 9.1818 23.5633 11.5831 24.58L15.1793 26.1064C18.0773 27.3362 20.4684 29.5608 20.4684 32.6969C20.4684 33.2286 20.3735 34.1517 20.2669 34.6732C20.2201 34.9025 20.3676 35.0632 20.5415 35.0632C20.6276 35.0632 20.7211 35.0238 20.7985 34.9332C22.6565 32.7919 23.6615 30.0356 23.6615 27.2077C23.6615 20.9604 18.5389 15.3762 12.2916 15.3762" fill="#FF6432"/>
</g>
<defs>
<clipPath id="clip0_1895_34504">
<rect width="114" height="40" fill="white"/>
</clipPath>
</defs>
</svg>
