<svg width="39" height="39" viewBox="0 0 39 39" fill="none" xmlns="http://www.w3.org/2000/svg"><g clip-path="url(#clip0_1895_34486)"><path d="M27.252 4.41l2.457.173c2.437.17 4.386 2.028 4.598 4.384l.213 2.375a4.73 4.73 0 001.195 2.733l1.613 1.803a4.697 4.697 0 01.047 6.246l-1.584 1.827a4.721 4.721 0 00-1.152 2.748l-.178 2.378c-.176 2.36-2.096 4.245-4.53 4.45l-2.456.208a5.054 5.054 0 00-2.823 1.156l-1.864 1.56a5.1 5.1 0 01-6.454.047l-1.887-1.533a5.055 5.055 0 00-2.84-1.115l-2.457-.172c-2.438-.17-4.386-2.028-4.598-4.384l-.214-2.376a4.73 4.73 0 00-1.194-2.732L1.53 22.383a4.697 4.697 0 01-.047-6.247l1.584-1.825a4.722 4.722 0 001.151-2.75l.178-2.378c.176-2.358 2.096-4.244 4.53-4.45l2.455-.206a5.053 5.053 0 002.824-1.156l1.864-1.56c1.846-1.548 4.582-1.567 6.453-.046l1.887 1.533a5.068 5.068 0 002.841 1.113h0z" stroke="url(#paint0_linear_1895_34486)" stroke-width=".239" stroke-miterlimit="10"/><path d="M26.896 5.08l2.348.163c2.326.163 4.185 1.937 4.388 4.185l.205 2.268c.09.97.49 1.884 1.14 2.609l1.54 1.722a4.486 4.486 0 01.045 5.963l-1.512 1.744a4.52 4.52 0 00-1.1 2.624l-.169 2.271c-.168 2.252-2.001 4.052-4.324 4.247l-2.344.199a4.841 4.841 0 00-2.695 1.103l-1.78 1.49a4.873 4.873 0 01-6.162.045l-1.802-1.464a4.837 4.837 0 00-2.71-1.064l-2.348-.164c-2.327-.163-4.186-1.937-4.389-4.186l-.204-2.267a4.53 4.53 0 00-1.14-2.609l-1.54-1.722a4.486 4.486 0 01-.046-5.963L3.81 14.53a4.518 4.518 0 001.1-2.625l.169-2.27c.167-2.253 2-4.052 4.323-4.248l2.345-.198a4.84 4.84 0 002.695-1.103l1.78-1.49a4.873 4.873 0 016.161-.045l1.803 1.464c.773.624 1.72.996 2.71 1.064v0z" stroke="url(#paint1_linear_1895_34486)" stroke-width=".239" stroke-miterlimit="10"/><path d="M26.532 5.765l2.233.157c2.211.155 3.98 1.84 4.175 3.98l.195 2.157a4.305 4.305 0 001.083 2.482l1.464 1.637a4.266 4.266 0 01.043 5.672l-1.438 1.658a4.292 4.292 0 00-1.045 2.496l-.162 2.16c-.16 2.141-1.902 3.853-4.114 4.04l-2.23.19a4.6 4.6 0 00-2.563 1.048l-1.69 1.417a4.634 4.634 0 01-5.861.041l-1.714-1.39a4.595 4.595 0 00-2.58-1.012l-2.231-.157c-2.213-.156-3.982-1.841-4.175-3.982l-.195-2.156a4.305 4.305 0 00-1.085-2.482L3.18 22.084a4.267 4.267 0 01-.043-5.672l1.438-1.658a4.29 4.29 0 001.045-2.496l.162-2.16c.16-2.141 1.903-3.853 4.113-4.04l2.23-.19a4.6 4.6 0 002.563-1.048l1.692-1.417a4.634 4.634 0 015.86-.041l1.714 1.391a4.604 4.604 0 002.58 1.011v.001z" stroke="url(#paint2_linear_1895_34486)" stroke-width=".239" stroke-miterlimit="10"/><path d="M26.162 6.461l2.115.149c2.098.146 3.775 1.745 3.958 3.773l.184 2.045c.08.875.442 1.7 1.029 2.353l1.387 1.552a4.044 4.044 0 01.042 5.377l-1.363 1.572a4.069 4.069 0 00-.992 2.365l-.152 2.048c-.153 2.03-1.804 3.654-3.9 3.83l-2.114.178a4.359 4.359 0 00-2.43.996l-1.604 1.343a4.392 4.392 0 01-5.555.04l-1.625-1.32a4.357 4.357 0 00-2.444-.958l-2.116-.148c-2.098-.148-3.775-1.746-3.958-3.775l-.184-2.045a4.08 4.08 0 00-1.028-2.352l-1.389-1.553a4.043 4.043 0 01-.04-5.376l1.362-1.572a4.069 4.069 0 00.992-2.366l.152-2.048c.153-2.03 1.804-3.653 3.9-3.829l2.114-.179a4.358 4.358 0 002.43-.995l1.604-1.343a4.39 4.39 0 015.555-.04l1.624 1.32a4.356 4.356 0 002.445.958h0z" stroke="url(#paint3_linear_1895_34486)" stroke-width=".239" stroke-miterlimit="10"/><path d="M28.06 4.841l2.445.302c2.425.298 4.266 2.255 4.346 4.618l.081 2.384a4.72 4.72 0 001.04 2.79l1.51 1.886a4.697 4.697 0 01-.301 6.24l-1.685 1.74a4.75 4.75 0 00-1.303 2.686l-.312 2.363c-.308 2.346-2.33 4.128-4.772 4.205l-2.463.08a5.08 5.08 0 00-2.883 1.006l-1.95 1.46c-1.93 1.449-4.662 1.325-6.446-.291l-1.8-1.63a5.047 5.047 0 00-2.773-1.262l-2.445-.3c-2.425-.3-4.265-2.256-4.345-4.62l-.082-2.383a4.72 4.72 0 00-1.04-2.79l-1.51-1.886a4.697 4.697 0 01.302-6.24l1.684-1.741a4.75 4.75 0 001.304-2.685l.31-2.366c.309-2.346 2.33-4.127 4.773-4.205l2.464-.08a5.08 5.08 0 002.883-1.005l1.948-1.461c1.93-1.448 4.664-1.326 6.447.291l1.8 1.631a5.04 5.04 0 002.773 1.263v0z" stroke="url(#paint4_linear_1895_34486)" stroke-width=".239" stroke-miterlimit="10"/><path d="M27.67 5.49l2.334.287c2.314.285 4.072 2.153 4.15 4.41l.076 2.275c.035.972.383 1.906.993 2.664l1.44 1.8a4.485 4.485 0 01-.288 5.956l-1.607 1.662a4.54 4.54 0 00-1.244 2.563l-.297 2.26c-.293 2.24-2.225 3.94-4.556 4.015l-2.352.075a4.848 4.848 0 00-2.752.96l-1.86 1.395c-1.843 1.382-4.451 1.263-6.155-.279l-1.717-1.556a4.824 4.824 0 00-2.648-1.204l-2.334-.288c-2.314-.284-4.071-2.153-4.15-4.409l-.076-2.275a4.505 4.505 0 00-.993-2.664l-1.44-1.8a4.486 4.486 0 01.288-5.956l1.607-1.663a4.54 4.54 0 001.244-2.562l.297-2.259c.294-2.24 2.225-3.94 4.556-4.016l2.351-.074a4.848 4.848 0 002.754-.96l1.859-1.395c1.844-1.382 4.452-1.264 6.155.279l1.717 1.555A4.82 4.82 0 0027.67 5.49v0z" stroke="url(#paint5_linear_1895_34486)" stroke-width=".239" stroke-miterlimit="10"/><path d="M27.267 6.156l2.22.273c2.2.271 3.874 2.048 3.946 4.193l.074 2.165c.033.924.364 1.813.943 2.533l1.37 1.713a4.266 4.266 0 01-.273 5.665l-1.53 1.58a4.32 4.32 0 00-1.184 2.438l-.283 2.147c-.28 2.13-2.116 3.75-4.332 3.82l-2.237.07a4.612 4.612 0 00-2.618.914l-1.768 1.326c-1.754 1.316-4.235 1.204-5.854-.265l-1.633-1.48a4.59 4.59 0 00-2.519-1.146l-2.22-.273c-2.2-.271-3.873-2.048-3.946-4.193L5.35 25.47a4.286 4.286 0 00-.943-2.533l-1.372-1.712a4.263 4.263 0 01.274-5.665l1.53-1.58a4.32 4.32 0 001.183-2.439l.283-2.147c.28-2.13 2.116-3.75 4.332-3.82l2.236-.07a4.612 4.612 0 002.619-.914l1.769-1.326c1.753-1.316 4.235-1.204 5.854.265l1.633 1.48a4.58 4.58 0 002.518 1.146h.001z" stroke="url(#paint6_linear_1895_34486)" stroke-width=".239" stroke-miterlimit="10"/><path d="M26.86 6.832l2.105.258c2.086.256 3.671 1.941 3.74 3.975l.07 2.052c.032.876.345 1.718.895 2.401l1.3 1.624a4.044 4.044 0 01-.26 5.37l-1.45 1.5a4.087 4.087 0 00-1.123 2.31l-.266 2.037c-.265 2.019-2.006 3.553-4.108 3.62l-2.12.068a4.376 4.376 0 00-2.482.866l-1.678 1.256c-1.662 1.246-4.014 1.14-5.55-.25l-1.547-1.404a4.342 4.342 0 00-2.388-1.086l-2.105-.258c-2.085-.256-3.671-1.941-3.74-3.975l-.07-2.052a4.067 4.067 0 00-.895-2.402l-1.3-1.623a4.044 4.044 0 01.26-5.371l1.45-1.498a4.089 4.089 0 001.123-2.311l.266-2.037c.266-2.019 2.006-3.553 4.108-3.62l2.12-.068a4.376 4.376 0 002.482-.866l1.678-1.256c1.662-1.246 4.014-1.14 5.55.25l1.547 1.403c.665.6 1.499.98 2.388 1.087v0z" stroke="url(#paint7_linear_1895_34486)" stroke-width=".239" stroke-miterlimit="10"/><path d="M26.554 7.335l2.017.249c2.002.246 3.522 1.862 3.587 3.812l.068 1.968c.03.84.33 1.648.857 2.303l1.246 1.557a3.88 3.88 0 01-.248 5.15l-1.39 1.438a3.922 3.922 0 00-1.077 2.215l-.257 1.953c-.254 1.936-1.924 3.408-3.94 3.472l-2.033.065c-.86.026-1.69.315-2.38.829l-1.608 1.206c-1.595 1.194-3.85 1.093-5.322-.24l-1.485-1.346a4.168 4.168 0 00-2.29-1.042l-2.017-.248c-1.999-.246-3.519-1.86-3.585-3.812l-.067-1.967a3.899 3.899 0 00-.857-2.303l-1.246-1.557a3.88 3.88 0 01.248-5.15l1.39-1.438a3.923 3.923 0 001.077-2.216l.257-1.952c.253-1.937 1.923-3.408 3.938-3.472l2.033-.065a4.195 4.195 0 002.38-.83l1.608-1.205c1.595-1.195 3.85-1.093 5.323.24l1.485 1.346a4.147 4.147 0 002.288 1.04v0z" stroke="url(#paint8_linear_1895_34486)" stroke-width=".239" stroke-miterlimit="10"/><path d="M26.25 7.84l1.932.236c1.915.236 3.37 1.782 3.433 3.65l.065 1.882c.028.804.317 1.578.822 2.205l1.192 1.49a3.712 3.712 0 01-.238 4.93l-1.33 1.377a3.759 3.759 0 00-1.031 2.122L30.85 27.6c-.244 1.854-1.841 3.262-3.771 3.323l-1.946.063a4.005 4.005 0 00-2.278.795l-1.54 1.154a4.033 4.033 0 01-5.095-.23l-1.422-1.288a3.994 3.994 0 00-2.192-.998l-1.931-.237c-1.916-.235-3.37-1.782-3.434-3.649l-.064-1.883a3.723 3.723 0 00-.822-2.204l-1.193-1.491a3.713 3.713 0 01.238-4.93l1.33-1.377a3.759 3.759 0 001.032-2.121l.245-1.87c.243-1.853 1.841-3.261 3.77-3.323l1.946-.062a4.006 4.006 0 002.278-.795l1.54-1.154a4.032 4.032 0 015.095.23l1.422 1.287a3.983 3.983 0 002.193.998v0z" stroke="#0B002E" stroke-width=".239" stroke-miterlimit="10"/><path d="M25.941 8.353l1.844.226c1.828.224 3.217 1.7 3.28 3.484l.06 1.798c.026.764.302 1.5.785 2.105l1.138 1.422a3.543 3.543 0 01-.228 4.706l-1.27 1.314a3.576 3.576 0 00-.983 2.024l-.234 1.784c-.233 1.77-1.758 3.115-3.6 3.174l-1.858.06a3.833 3.833 0 00-2.175.758l-1.47 1.102c-1.457 1.092-3.518 1-4.863-.22l-1.358-1.23a3.8 3.8 0 00-2.091-.952l-1.844-.226c-1.829-.224-3.217-1.7-3.279-3.484L7.733 24.4a3.564 3.564 0 00-.783-2.104l-1.14-1.423a3.544 3.544 0 01.228-4.706l1.27-1.314a3.576 3.576 0 00.984-2.025l.234-1.783c.232-1.771 1.758-3.115 3.6-3.174l1.858-.06a3.834 3.834 0 002.174-.758l1.47-1.103a3.848 3.848 0 014.863.222L23.849 7.4a3.82 3.82 0 002.091.952h.001z" stroke="#0B002E" stroke-width=".239" stroke-miterlimit="10"/><path d="M25.767 8.638l1.795.221c1.78.22 3.133 1.655 3.192 3.391l.06 1.75a3.48 3.48 0 00.762 2.05l1.109 1.383a3.451 3.451 0 01-.22 4.582l-1.239 1.278a3.488 3.488 0 00-.957 1.972l-.228 1.737c-.227 1.722-1.71 3.032-3.504 3.088l-1.808.058a3.738 3.738 0 00-2.118.74l-1.43 1.071c-1.418 1.063-3.426.973-4.734-.214l-1.32-1.197a3.705 3.705 0 00-2.038-.926l-1.795-.22c-1.78-.22-3.133-1.655-3.191-3.391l-.06-1.75a3.475 3.475 0 00-.763-2.049l-1.11-1.384a3.451 3.451 0 01.221-4.582l1.237-1.278a3.488 3.488 0 00.958-1.971l.228-1.74c.227-1.72 1.71-3.03 3.504-3.088l1.808-.058a3.738 3.738 0 002.117-.738L17.675 6.3a3.748 3.748 0 014.734.214l1.32 1.198a3.696 3.696 0 002.038.926v0z" stroke="#0B002E" stroke-width=".239" stroke-miterlimit="10"/><path d="M25.816 8.559l1.81.222c1.793.22 3.155 1.668 3.215 3.417l.06 1.764c.027.753.297 1.477.769 2.064l1.116 1.395a3.478 3.478 0 01-.222 4.616l-1.245 1.288a3.513 3.513 0 00-.965 1.985l-.23 1.751c-.228 1.736-1.723 3.054-3.53 3.113l-1.823.058a3.758 3.758 0 00-2.134.743l-1.44 1.081a3.774 3.774 0 01-4.77-.214l-1.33-1.206a3.734 3.734 0 00-2.052-.934l-1.809-.223c-1.794-.22-3.156-1.667-3.216-3.417l-.06-1.764a3.493 3.493 0 00-.77-2.063L6.075 20.84a3.478 3.478 0 01.223-4.616l1.246-1.288a3.514 3.514 0 00.964-1.985l.23-1.752c.227-1.735 1.723-3.053 3.531-3.111l1.822-.059a3.758 3.758 0 002.133-.743l1.441-1.081a3.775 3.775 0 014.77.215l1.33 1.205a3.734 3.734 0 002.052.934h0z" fill="#0B002E" stroke="#0B002E" stroke-width="2.389" stroke-miterlimit="10"/><path d="M12.255 26.859c.58 0 .921-.3.921-.753 0-.438-.337-.59-.849-.704-.365-.082-.507-.138-.507-.31 0-.142.131-.256.349-.256.228 0 .465.093.676.263l.266-.367a1.369 1.369 0 00-.928-.328c-.518 0-.877.301-.877.74 0 .458.355.6.856.714.363.083.5.134.5.304 0 .148-.13.265-.386.265-.3 0-.556-.117-.78-.31l-.294.349c.276.255.643.393 1.053.393zm3.545-1.954v-.459h-1.827v2.371H15.8v-.458h-1.316v-.522h1.191v-.459h-1.19v-.473H15.8zm1.983 1.954c.36 0 .69-.155.922-.397l-.37-.331a.737.737 0 01-.552.265c-.396 0-.735-.351-.735-.766 0-.41.339-.763.735-.763.218 0 .415.107.553.266l.37-.331a1.27 1.27 0 00-.923-.398c-.68 0-1.26.56-1.26 1.226 0 .666.58 1.23 1.26 1.23v-.001zm2.74 0c.628 0 1.073-.442 1.073-1.067v-1.346h-.51v1.325c0 .367-.236.625-.564.625-.331 0-.566-.258-.566-.624v-1.326h-.507v1.346c0 .625.442 1.067 1.073 1.067zm3.972-.042l-.583-.828a.773.773 0 00.539-.742c0-.47-.38-.801-.895-.801H22.49v2.371h.507v-.77h.376l.542.77h.58zm-1.498-1.905h.504c.252 0 .425.131.425.335 0 .204-.172.334-.425.334h-.505v-.669zm4.09-.006v-.46H25.26v2.371h1.826v-.458h-1.315v-.522h1.19v-.459h-1.19v-.473h1.315zm-11.124-8.844c.716.148 1.263.444 1.641.889.387.435.58.966.58 1.591 0 .51-.14.983-.42 1.42-.271.436-.69.79-1.258 1.061-.56.263-1.255.395-2.085.395a7.539 7.539 0 01-1.815-.223 5.361 5.361 0 01-1.543-.629l.89-1.839c.337.23.715.408 1.134.53.41.121.833.183 1.259.186.42 0 .753-.078 1-.234a.745.745 0 00.37-.667c0-.559-.44-.84-1.32-.84H13.37v-1.54l1.543-1.667h-3.406v-1.888h6.244v1.53l-1.79 1.925h.001zm3.45-3.456h4.084c.947 0 1.786.177 2.518.53.733.355 1.3.857 1.703 1.507.403.65.605 1.41.605 2.283 0 .872-.202 1.633-.605 2.283-.403.65-.97 1.151-1.703 1.505-.733.354-1.572.53-2.518.53h-4.084v-8.638zm3.986 6.689c.74 0 1.332-.21 1.777-.63.452-.419.679-1 .679-1.74s-.227-1.32-.679-1.74c-.445-.419-1.037-.629-1.777-.629h-1.543v4.74h1.543v-.001z" fill="#fff"/></g><defs><linearGradient id="paint0_linear_1895_34486" x1="36.335" y1="19.131" x2="3.163" y2="19.131" gradientUnits="userSpaceOnUse"><stop offset=".276" stop-color="#FF6786"/><stop offset=".813" stop-color="#3036E9"/></linearGradient><linearGradient id="paint1_linear_1895_34486" x1="35.569" y1="19.132" x2="3.901" y2="19.132" gradientUnits="userSpaceOnUse"><stop offset=".276" stop-color="#FF6786"/><stop offset=".813" stop-color="#3036E9"/></linearGradient><linearGradient id="paint2_linear_1895_34486" x1="34.78" y1="19.131" x2="4.661" y2="19.131" gradientUnits="userSpaceOnUse"><stop offset=".276" stop-color="#FF6786"/><stop offset=".813" stop-color="#3036E9"/></linearGradient><linearGradient id="paint3_linear_1895_34486" x1="33.981" y1="19.132" x2="5.428" y2="19.132" gradientUnits="userSpaceOnUse"><stop offset=".276" stop-color="#FF6786"/><stop offset=".813" stop-color="#3036E9"/></linearGradient><linearGradient id="paint4_linear_1895_34486" x1="2.203" y1="26.018" x2="36.669" y2="26.263" gradientUnits="userSpaceOnUse"><stop stop-color="#FD7CC4"/><stop offset=".396" stop-color="#FF7191"/><stop offset="1" stop-color="#FFEFF0"/></linearGradient><linearGradient id="paint5_linear_1895_34486" x1="2.987" y1="25.709" x2="35.887" y2="25.942" gradientUnits="userSpaceOnUse"><stop stop-color="#FD7CC4"/><stop offset=".396" stop-color="#FF7191"/><stop offset="1" stop-color="#FFEFF0"/></linearGradient><linearGradient id="paint6_linear_1895_34486" x1="3.788" y1="25.385" x2="35.083" y2="25.607" gradientUnits="userSpaceOnUse"><stop stop-color="#FD7CC4"/><stop offset=".396" stop-color="#FF7191"/><stop offset="1" stop-color="#FFEFF0"/></linearGradient><linearGradient id="paint7_linear_1895_34486" x1="4.604" y1="25.06" x2="34.269" y2="25.271" gradientUnits="userSpaceOnUse"><stop stop-color="#FD7CC4"/><stop offset=".396" stop-color="#FF7191"/><stop offset="1" stop-color="#FFEFF0"/></linearGradient><linearGradient id="paint8_linear_1895_34486" x1="5.213" y1="24.817" x2="33.658" y2="25.019" gradientUnits="userSpaceOnUse"><stop stop-color="#FD7CC4"/><stop offset=".396" stop-color="#FF7191"/><stop offset="1" stop-color="#FFEFF0"/></linearGradient><clipPath id="clip0_1895_34486"><path fill="#fff" d="M0 0h38.858v38.221H0z"/></clipPath></defs></svg>