<svg width="39" height="39" viewBox="0 0 39 39" fill="none" xmlns="http://www.w3.org/2000/svg">
<g clip-path="url(#clip0_1895_34486)">
<path d="M27.2519 4.41071L29.7089 4.58271C32.1461 4.75343 34.0948 6.61098 34.3069 8.96732L34.5203 11.3421C34.6133 12.3581 35.0322 13.3167 35.7147 14.075L37.3276 15.8777C38.0999 16.7321 38.5313 17.8404 38.54 18.9921C38.5487 20.1437 38.134 21.2584 37.3748 22.1244L35.7905 23.9507C35.1201 24.7187 34.7163 25.683 34.6394 26.6994L34.461 29.0774C34.2852 31.4363 32.3653 33.3219 29.9312 33.527L27.4748 33.7353C26.4374 33.8206 25.4516 34.2242 24.6522 34.8909L22.7883 36.4516C20.9409 37.9989 18.2049 38.0187 16.334 36.4975L14.4471 34.9648C13.6379 34.3096 12.6461 33.9203 11.6073 33.85L9.14965 33.678C6.71241 33.5079 4.7644 31.6497 4.55164 29.294L4.33823 26.9179C4.245 25.9025 3.82604 24.9443 3.14382 24.1864L1.53088 22.383C0.758642 21.5286 0.327184 20.4203 0.318493 19.2686C0.309803 18.117 0.724485 17.0023 1.48374 16.1364L3.06801 14.3107C3.73838 13.5427 4.1422 12.5784 4.21911 11.5619L4.39748 9.18327C4.57329 6.82502 6.49328 4.93944 8.92733 4.73368L11.3818 4.52729C12.4197 4.44212 13.406 4.0383 14.2057 3.37109L16.0696 1.81039C17.9163 0.263069 20.6523 0.243958 22.5233 1.76453L24.4101 3.29784C25.2203 3.95188 26.2124 4.34046 27.2512 4.41071H27.2519Z" stroke="url(#paint0_linear_1895_34486)" stroke-width="0.238883" stroke-miterlimit="10"/>
<path d="M26.8963 5.0796L29.2437 5.24332C31.5701 5.40576 33.4295 7.17986 33.6321 9.42791L33.8372 11.6963C33.927 12.6657 34.3266 13.5804 34.9769 14.3049L36.5165 16.0268C37.2535 16.8425 37.6653 17.9004 37.6738 18.9997C37.6822 20.0989 37.2868 21.163 36.5624 21.99L35.0495 23.7341C34.4101 24.4676 34.0244 25.3878 33.95 26.358L33.7812 28.629C33.613 30.8809 31.7797 32.6805 29.4571 32.876L27.1128 33.0748C26.1225 33.1572 25.1815 33.5424 24.4176 34.1781L22.6384 35.6681C20.8751 37.1441 18.2627 37.1638 16.4765 35.7127L14.6737 34.2488C13.9009 33.6242 12.9545 33.2528 11.9632 33.185L9.61642 33.0206C7.28938 32.8582 5.42992 31.0841 5.22735 28.8354L5.02286 26.5676C4.93295 25.5981 4.53311 24.6834 3.8826 23.959L2.34292 22.2371C1.60594 21.4214 1.19413 20.3635 1.18568 19.2643C1.17722 18.165 1.57271 17.1009 2.29705 16.274L3.80998 14.5298C4.44957 13.7962 4.8352 12.8757 4.90947 11.9053L5.07892 9.6343C5.24646 7.38243 7.0798 5.58285 9.40238 5.38728L11.7466 5.18917C12.737 5.10678 13.678 4.72157 14.4419 4.08585L16.2211 2.59522C17.9843 1.11924 20.5974 1.10013 22.383 2.55127L24.1857 4.01514C24.9589 4.63913 25.9051 5.0105 26.8963 5.07897V5.0796Z" stroke="url(#paint1_linear_1895_34486)" stroke-width="0.238883" stroke-miterlimit="10"/>
<path d="M26.5324 5.76502L28.7645 5.92173C30.9762 6.07652 32.7459 7.76272 32.9395 9.90183L33.1345 12.0594C33.2194 12.9815 33.5994 13.8516 34.218 14.5406L35.6819 16.1778C36.3829 16.9536 36.7746 17.9599 36.7825 19.0055C36.7905 20.0512 36.4143 21.0633 35.7252 21.8498L34.2868 23.508C33.6786 24.2055 33.3121 25.081 33.2421 26.0038L33.0797 28.1646C32.9192 30.305 31.1775 32.0173 28.9664 32.2046L26.7369 32.3931C25.7949 32.4712 24.8998 32.8375 24.1735 33.4423L22.4822 34.859C20.8043 36.263 18.3199 36.2809 16.6216 34.9004L14.908 33.5092C14.1726 32.9145 13.2717 32.5613 12.3281 32.4976L10.0966 32.3409C7.88423 32.1855 6.11522 30.4999 5.92157 28.3595L5.72664 26.2026C5.64152 25.2804 5.2613 24.4103 4.64243 23.7214L3.17856 22.0842C2.47766 21.3083 2.08611 20.3019 2.07825 19.2563C2.07038 18.2107 2.44674 17.1986 3.13588 16.4122L4.57363 14.754C5.18215 14.0566 5.54884 13.1811 5.61898 12.2582L5.78079 10.098C5.94132 7.95701 7.68357 6.2447 9.89403 6.05741L12.1236 5.86885C13.0656 5.79083 13.9606 5.42449 14.687 4.81968L16.3789 3.40295C18.0562 1.99895 20.5406 1.98111 22.2395 3.36154L23.9531 4.75343C24.6887 5.34724 25.5892 5.70021 26.5324 5.76438V5.76502Z" stroke="url(#paint2_linear_1895_34486)" stroke-width="0.238883" stroke-miterlimit="10"/>
<path d="M26.1619 6.46131L28.2774 6.60974C30.3751 6.75625 32.0524 8.35518 32.2346 10.3835L32.4193 12.4283C32.4999 13.3027 32.8605 14.1277 33.4475 14.7808L34.8349 16.3332C35.4996 17.0685 35.8711 18.0223 35.8789 19.0135C35.8866 20.0046 35.5301 20.9641 34.877 21.7097L33.5137 23.2819C32.937 23.9428 32.5893 24.7725 32.5225 25.6471L32.3696 27.6951C32.2168 29.7253 30.5656 31.3485 28.4698 31.5249L26.3562 31.7033C25.463 31.7774 24.6144 32.1251 23.9259 32.6989L22.3219 34.0418C20.7319 35.3731 18.3781 35.3903 16.7665 34.0819L15.1421 32.7626C14.4453 32.1993 13.5918 31.8645 12.6978 31.8039L10.5816 31.6555C8.48391 31.5083 6.80663 29.9101 6.62444 27.8811L6.4397 25.8363C6.35897 24.9621 5.9984 24.1373 5.41155 23.4844L4.02348 21.9314C3.35873 21.1961 2.98725 20.2422 2.97961 19.251C2.97198 18.2598 3.32873 17.3003 3.98208 16.5549L5.3453 14.9834C5.92217 14.3223 6.26985 13.4924 6.33651 12.6175L6.48939 10.5695C6.64228 8.53991 8.29344 6.91615 10.3892 6.74033L12.5029 6.56132C13.3958 6.48729 14.2441 6.13985 14.9325 5.5663L16.5371 4.22346C18.1271 2.89145 20.4809 2.87425 22.092 4.18269L23.7164 5.5026C24.4133 6.06607 25.2671 6.40086 26.1612 6.46131H26.1619Z" stroke="url(#paint3_linear_1895_34486)" stroke-width="0.238883" stroke-miterlimit="10"/>
<path d="M28.0602 4.84136L30.5051 5.14267C32.9296 5.4408 34.7706 7.39773 34.8509 9.76107L34.9324 12.1454C34.9689 13.1633 35.3336 14.142 35.9721 14.9356L37.4818 16.8212C38.9788 18.6902 38.8507 21.3345 37.1805 23.0608L35.4956 24.8018C34.7841 25.5336 34.3273 26.4751 34.1928 27.4868L33.8813 29.8502C33.573 32.1957 31.5518 33.9781 29.1088 34.0551L26.6461 34.1341C25.6045 34.166 24.598 34.5174 23.7629 35.1406L21.8136 36.6013C19.8834 38.0499 17.1506 37.9263 15.367 36.3096L13.5674 34.6794C12.7949 33.9833 11.8262 33.5428 10.7938 33.4181L8.34891 33.1175C5.9244 32.8187 4.08405 30.8624 4.00378 28.4984L3.92161 26.1147C3.88534 25.0969 3.52088 24.1181 2.88263 23.3245L1.37289 21.4389C-0.124112 19.5699 0.00329269 16.925 1.67356 15.1993L3.35848 13.4577C4.07004 12.7262 4.52705 11.7849 4.66183 10.7733L4.97269 8.4074C5.28101 6.06126 7.30228 4.27951 9.74526 4.20179L12.2086 4.1228C13.2501 4.09119 14.2566 3.74003 15.0918 3.11694L17.0398 1.65562C18.9712 0.207669 21.7041 0.330614 23.4871 1.94737L25.2867 3.57815C26.0587 4.27535 27.0275 4.7166 28.0602 4.84136V4.84136Z" stroke="url(#paint4_linear_1895_34486)" stroke-width="0.238883" stroke-miterlimit="10"/>
<path d="M27.6704 5.4898L30.0045 5.77709C32.3181 6.06184 34.0757 7.93022 34.1534 10.1866L34.2305 12.462C34.2651 13.4338 34.6133 14.3684 35.223 15.126L36.6639 16.9256C38.0915 18.7099 37.9698 21.2338 36.3753 22.8817L34.7681 24.5444C34.0892 25.243 33.653 26.1415 33.524 27.1071L33.2272 29.3666C32.9335 31.6064 31.0021 33.3072 28.6712 33.3824L26.3193 33.4569C25.3252 33.4871 24.3645 33.8222 23.5674 34.4169L21.7073 35.812C19.8637 37.1937 17.2558 37.0752 15.5524 35.533L13.835 33.9774C13.0972 33.3131 12.1724 32.8927 11.1869 32.7734L8.85283 32.4855C6.53917 32.2014 4.78163 30.3323 4.70391 28.076L4.62683 25.8006C4.59216 24.8287 4.244 23.8942 3.63435 23.1366L2.19341 21.337C0.765848 19.5533 0.887519 17.0294 2.48198 15.3808L4.08919 13.7182C4.76797 13.0197 5.20415 12.1215 5.33329 11.1561L5.63014 8.89722C5.92381 6.65746 7.85525 4.95661 10.1861 4.88144L12.5374 4.80691C13.5319 4.77685 14.4932 4.44146 15.2906 3.84628L17.15 2.45184C18.9936 1.07014 21.6015 1.18799 23.3049 2.73086L25.0223 4.28646C25.7599 4.95098 26.6848 5.37147 27.6704 5.49043V5.4898Z" stroke="url(#paint5_linear_1895_34486)" stroke-width="0.238883" stroke-miterlimit="10"/>
<path d="M27.267 6.15618L29.4863 6.42947C31.6872 6.7002 33.3607 8.47749 33.4333 10.6223L33.5066 12.7869C33.5396 13.7111 33.8705 14.5998 34.45 15.3204L35.8209 17.0327C37.1796 18.7297 37.0631 21.1313 35.547 22.6977L34.0168 24.2782C33.3708 24.9427 32.9556 25.7974 32.8326 26.716L32.5504 28.8634C32.2708 30.9936 30.4342 32.6129 28.218 32.6837L25.9814 32.7537C25.0357 32.7824 24.1216 33.1014 23.3633 33.6672L21.5949 34.9935C19.8412 36.3089 17.36 36.1968 15.7407 34.7285L14.108 33.2481C13.4063 32.6161 12.5267 32.2159 11.5892 32.1021L9.36985 31.8288C7.16894 31.558 5.49613 29.7807 5.42287 27.6359L5.34961 25.4713C5.31682 24.5472 4.9861 23.6586 4.40682 22.9379L3.03468 21.2256C1.67527 19.5285 1.79121 17.127 3.3086 15.5605L4.83808 13.9807C5.48418 13.316 5.89937 12.461 6.02231 11.5422L6.30451 9.3948C6.5848 7.2646 8.42069 5.64529 10.6375 5.57458L12.8735 5.50451C13.8192 5.47579 14.7333 5.15688 15.4916 4.59102L17.2606 3.26475C19.0144 1.9493 21.4962 2.06141 23.1149 3.52975L24.7475 5.01018C25.4489 5.64274 26.3287 6.04302 27.2663 6.15618H27.267Z" stroke="url(#paint6_linear_1895_34486)" stroke-width="0.238883" stroke-miterlimit="10"/>
<path d="M26.8598 6.83199L28.9645 7.08999C31.0508 7.34607 32.6363 9.03099 32.7051 11.065L32.7752 13.1168C32.8067 13.9928 33.1204 14.8352 33.6696 15.5184L34.9691 17.1422C36.2559 18.7513 36.1476 21.0267 34.7092 22.5129L33.26 24.0118C32.6471 24.6411 32.2533 25.451 32.1369 26.3217L31.8706 28.3588C31.6056 30.3776 29.8646 31.9122 27.7631 31.9784L25.6425 32.0466C24.746 32.0742 23.8796 32.3766 23.1606 32.9129L21.4834 34.1691C19.8207 35.4151 17.4689 35.3094 15.9336 33.9181L14.3857 32.5154C13.7208 31.9159 12.8869 31.5365 11.9981 31.4293L9.8934 31.1713C7.80779 30.9146 6.22161 29.2297 6.15281 27.1963L6.08274 25.1438C6.05122 24.2678 5.73752 23.4254 5.18836 22.7422L3.88884 21.1185C2.60205 19.5094 2.71035 17.2339 4.14874 15.7477L5.59797 14.2495C6.2146 13.6124 6.60764 12.8034 6.72103 11.939L6.98731 9.90244C7.25295 7.88308 8.99329 6.3485 11.0948 6.28225L13.2155 6.21408C14.1119 6.18664 14.9783 5.88443 15.6973 5.34837L17.3746 4.09153C19.0372 2.84552 21.3891 2.95126 22.9243 4.34252L24.4723 5.74524C25.1367 6.34548 25.9708 6.72514 26.8598 6.83199V6.83199Z" stroke="url(#paint7_linear_1895_34486)" stroke-width="0.238883" stroke-miterlimit="10"/>
<path d="M26.5538 7.33528L28.5713 7.58372C30.5728 7.82961 32.0927 9.44573 32.1583 11.3963L32.2259 13.364C32.2558 14.2042 32.5566 15.0122 33.0833 15.6675L34.3293 17.2238C35.5632 18.7666 35.4587 20.9497 34.0809 22.3741L32.6903 23.8118C32.1028 24.4156 31.7253 25.1924 31.6137 26.0274L31.357 27.9799C31.1034 29.9164 29.4332 31.3879 27.417 31.4516L25.3843 31.5166C24.5247 31.5426 23.6939 31.8321 23.0043 32.346L21.3959 33.5519C19.8014 34.7463 17.5464 34.645 16.0736 33.3117L14.5887 31.9663C13.9511 31.3915 13.1515 31.0275 12.2992 30.9242L10.2818 30.6757C8.28343 30.4298 6.7635 28.8156 6.69725 26.8644L6.63036 24.8967C6.60026 24.0567 6.2995 23.249 5.77293 22.5938L4.52691 21.037C3.29237 19.4941 3.39748 17.3117 4.77535 15.8866L6.16533 14.4489C6.75273 13.8451 7.1302 13.0683 7.2419 12.2333L7.49925 10.2809C7.75152 8.34432 9.42178 6.8728 11.4373 6.8091L13.4701 6.74412C14.3296 6.71814 15.1604 6.4286 15.85 5.91472L17.4584 4.70884C19.0529 3.51442 21.308 3.61571 22.7808 4.949L24.2656 6.29502C24.9024 6.87014 25.7019 7.23359 26.5538 7.33528V7.33528Z" stroke="url(#paint8_linear_1895_34486)" stroke-width="0.238883" stroke-miterlimit="10"/>
<path d="M26.2507 7.83913L28.1816 8.0761C30.0971 8.3118 31.552 9.85785 31.6151 11.7256L31.6801 13.608C31.7084 14.4124 31.9967 15.186 32.5018 15.8127L33.6943 17.3033C34.8773 18.7812 34.7754 20.8707 33.4561 22.2339L32.126 23.6105C31.5635 24.1886 31.2019 24.9323 31.0946 25.7318L30.85 27.6008C30.6061 29.4545 29.009 30.863 27.0789 30.9241L25.1334 30.9866C24.3104 31.0111 23.515 31.2887 22.8554 31.7816L21.3157 32.9358C19.7888 34.0806 17.6299 33.9818 16.2202 32.7059L14.7984 31.4178C14.1876 30.8676 13.4219 30.5192 12.6057 30.4203L10.6749 30.1833C8.75941 29.9476 7.30446 28.4015 7.24139 26.5344L7.17705 24.6514C7.14869 23.847 6.86036 23.0734 6.3553 22.4467L5.16216 20.956C3.97984 19.4781 4.08113 17.3887 5.4004 16.0255L6.7305 14.6489C7.293 14.0708 7.65459 13.327 7.76184 12.5276L8.00709 10.6586C8.25043 8.80485 9.84808 7.39704 11.7776 7.33524L13.7231 7.27282C14.5461 7.24824 15.3415 6.97064 16.0011 6.47781L17.5407 5.32353C19.0677 4.17881 21.2266 4.27754 22.6363 5.55413L24.0581 6.84092C24.6633 7.38939 25.4303 7.73912 26.2507 7.83913V7.83913Z" stroke="#0B002E" stroke-width="0.238883" stroke-miterlimit="10"/>
<path d="M25.9412 8.35269L27.7853 8.57883C29.6129 8.80306 31.0023 10.2797 31.0641 12.0627L31.1252 13.861C31.1507 14.6254 31.4265 15.3606 31.91 15.9657L33.0484 17.3876C33.5938 18.0636 33.8719 18.9165 33.8298 19.7841C33.7878 20.6517 33.4286 21.4737 32.8203 22.0939L31.5501 23.408C31.0129 23.9594 30.6679 24.6694 30.5666 25.4325L30.3328 27.2162C30.1003 28.9858 28.5746 30.3306 26.733 30.3898L24.8748 30.4497C24.0892 30.4737 23.33 30.7385 22.7 31.2084L21.2304 32.3104C19.7735 33.4023 17.7121 33.3093 16.3674 32.0894L15.0092 30.8599C14.427 30.3345 13.6965 30.002 12.9179 29.9082L11.0737 29.6821C9.24547 29.4578 7.85676 27.9812 7.79497 26.1982L7.73318 24.3999C7.70569 23.6325 7.43109 22.8945 6.95028 22.2958L5.81001 20.8733C5.26462 20.1973 4.98653 19.3444 5.02857 18.4768C5.07061 17.6092 5.42986 16.7872 6.03807 16.167L7.30829 14.8529C7.84548 14.3015 8.19043 13.5915 8.29185 12.8284L8.52564 11.0447C8.75815 9.27382 10.2838 7.92971 12.1254 7.8711L13.9836 7.81122C14.7692 7.78719 15.5284 7.52234 16.1584 7.05253L17.628 5.95048C19.0849 4.85863 21.1463 4.95163 22.491 6.17153L23.8485 7.40098C24.4316 7.9255 25.162 8.25779 25.9405 8.35269H25.9412Z" stroke="#0B002E" stroke-width="0.238883" stroke-miterlimit="10"/>
<path d="M25.7671 8.63806L27.5623 8.8591C29.3415 9.07824 30.6945 10.5141 30.7537 12.25L30.8136 13.9999C30.8406 14.7472 31.108 15.466 31.5761 16.0492L32.6846 17.4334C33.2155 18.0914 33.4863 18.9215 33.4457 19.7661C33.4051 20.6106 33.0558 21.4108 32.4641 22.0149L31.2264 23.2927C30.7036 23.8301 30.3678 24.5217 30.269 25.2649L30.0409 27.0021C29.8141 28.724 28.3305 30.0337 26.5373 30.0904L24.7294 30.1483C23.9644 30.172 23.2251 30.4299 22.6113 30.8873L21.1806 31.9594C19.7626 33.0219 17.7553 32.9321 16.4469 31.7454L15.1263 30.5478C14.5658 30.0388 13.8523 29.7158 13.0892 29.6215L11.294 29.4024C9.51482 29.1826 8.16116 27.7468 8.10255 26.0109L8.04267 24.2616C8.0155 23.5142 7.74785 22.7955 7.27952 22.2123L6.1711 20.8275C5.64026 20.1693 5.36951 19.3392 5.41026 18.4947C5.45101 17.6501 5.80041 16.85 6.39215 16.246L7.62924 14.9681C8.1522 14.431 8.48815 13.7396 8.58732 12.9966L8.81538 11.2575C9.04152 9.53626 10.5258 8.22654 12.319 8.16921L14.1269 8.11124C14.8916 8.08764 15.6307 7.82994 16.2443 7.37293L17.6751 6.30019C19.0931 5.23764 21.1003 5.3281 22.4094 6.51423L23.7299 7.71183C24.2918 8.22081 25.004 8.54569 25.7671 8.63806V8.63806Z" stroke="#0B002E" stroke-width="0.238883" stroke-miterlimit="10"/>
<path d="M25.8161 8.559L27.6253 8.78132C29.4191 9.00173 30.7811 10.449 30.8409 12.1983L30.9015 13.9622C30.9283 14.715 31.1978 15.439 31.6697 16.0262L32.7864 17.4212C33.3211 18.0843 33.5938 18.9206 33.5529 19.7714C33.5119 20.6223 33.16 21.4285 32.5641 22.0371L31.3187 23.3245C30.792 23.8655 30.4536 24.5617 30.3536 25.3101L30.1243 27.0613C29.8962 28.7972 28.4011 30.1152 26.5933 30.1738L24.7714 30.2317C24.0006 30.2547 23.2556 30.5143 22.6374 30.9751L21.1964 32.0562C19.7676 33.1276 17.7457 33.0359 16.4271 31.8415L15.0963 30.6356C14.5251 30.1204 13.8087 29.7943 13.0451 29.7017L11.236 29.4794C9.44212 29.259 8.08017 27.8117 8.01966 26.0624L7.95914 24.2985C7.93233 23.5457 7.66284 22.8217 7.19089 22.2346L6.07419 20.8395C5.53949 20.1764 5.26676 19.3401 5.30774 18.4893C5.34872 17.6385 5.70056 16.8323 6.29651 16.2236L7.54253 14.9362C8.06892 14.3951 8.40709 13.6989 8.50698 12.9506L8.73631 11.1994C8.96436 9.46357 10.4601 8.14557 12.268 8.0876L14.0898 8.029C14.8604 8.00585 15.6052 7.74632 16.2232 7.28559L17.6642 6.20457C19.0936 5.1331 21.1149 5.22483 22.4342 6.41988L23.7643 7.62512C24.3355 8.14028 25.0519 8.46644 25.8155 8.559H25.8161Z" fill="#0B002E" stroke="#0B002E" stroke-width="2.38883" stroke-miterlimit="10"/>
<path d="M12.2547 26.8588C12.8344 26.8588 13.1765 26.5587 13.1765 26.1064C13.1765 25.6682 12.8389 25.5159 12.3273 25.4025C11.9617 25.3197 11.8203 25.2643 11.8203 25.0917C11.8203 24.9496 11.9515 24.8362 12.1687 24.8362C12.3968 24.8362 12.6344 24.9292 12.8452 25.0987L13.1109 24.7324C12.8694 24.5254 12.5694 24.4043 12.1827 24.4043C11.6648 24.4043 11.3055 24.705 11.3055 25.1433C11.3055 25.6019 11.661 25.744 12.1617 25.858C12.5248 25.9408 12.6624 25.9924 12.6624 26.1619C12.6624 26.3103 12.5312 26.4275 12.2757 26.4275C11.9751 26.4275 11.7196 26.3103 11.4954 26.1166L11.2023 26.4657C11.4782 26.7205 11.8445 26.8588 12.2547 26.8588ZM15.7997 24.905V24.4464H13.9734V26.8174H15.7997V26.3587H14.4843V25.837H15.6755V25.3783H14.4843V24.905H15.7997ZM17.7834 26.8588C18.1427 26.8588 18.4739 26.704 18.7052 26.4619L18.3357 26.1306C18.268 26.2119 18.1837 26.2776 18.0884 26.3234C17.9931 26.3692 17.8891 26.3941 17.7834 26.3963C17.3865 26.3963 17.0483 26.0446 17.0483 25.6299C17.0483 25.2191 17.3865 24.8668 17.7834 24.8668C18.0013 24.8668 18.1975 24.9744 18.3357 25.1331L18.7052 24.8018C18.5866 24.6764 18.4437 24.5764 18.2853 24.5081C18.1268 24.4398 17.956 24.4044 17.7834 24.4043C17.1037 24.4043 16.5234 24.9636 16.5234 25.6299C16.5234 26.2963 17.1031 26.8594 17.7834 26.8594V26.8588ZM20.5226 26.8588C21.1507 26.8588 21.596 26.4173 21.596 25.7924V24.4457H21.0851V25.7714C21.0851 26.1377 20.85 26.3963 20.522 26.3963C20.1907 26.3963 19.9557 26.1377 19.9557 25.772V24.4457H19.4486V25.7924C19.4486 26.4167 19.8907 26.8588 20.522 26.8588H20.5226ZM24.4951 26.8174L23.9116 25.9892C24.2364 25.8746 24.4505 25.5987 24.4505 25.2471C24.4505 24.7776 24.0708 24.4457 23.5561 24.4457H22.4897V26.8174H22.9968V26.0478H23.3733L23.9147 26.8174H24.4951ZM22.9968 24.912H23.5013C23.7529 24.912 23.9256 25.0432 23.9256 25.2471C23.9256 25.4509 23.7536 25.5815 23.5013 25.5815H22.9962V24.912H22.9968ZM27.0865 24.9057V24.4457H25.2608V26.8174H27.0871V26.3587H25.7717V25.837H26.9629V25.3783H25.7717V24.905H27.0871L27.0865 24.9057ZM15.9634 16.0619C16.6788 16.2097 17.226 16.5059 17.6044 16.9505C17.9911 17.3863 18.1841 17.9169 18.1841 18.5424C18.1841 19.0521 18.044 19.5254 17.7649 19.9617C17.4929 20.3975 17.0738 20.7516 16.5062 21.023C15.9462 21.2861 15.2513 21.418 14.4206 21.418C13.8116 21.418 13.2071 21.3434 12.6063 21.195C12.0139 21.0472 11.4998 20.8376 11.0635 20.5663L11.9521 18.7272C12.2897 18.9578 12.6681 19.1349 13.0873 19.2578C13.4961 19.3783 13.9199 19.4405 14.346 19.4426C14.7658 19.4426 15.099 19.3648 15.3462 19.2088C15.5927 19.0521 15.7156 18.8304 15.7156 18.5424C15.7156 17.9831 15.2761 17.7029 14.3957 17.7029H13.3708V16.1613L14.9136 14.4948H11.5075V12.6067H17.7516V14.1374L15.9622 16.0625L15.9634 16.0619ZM19.4129 12.606H23.4975C24.4435 12.606 25.2831 12.7831 26.015 13.1367C26.7476 13.4909 27.3145 13.9928 27.7184 14.6426C28.121 15.2924 28.3229 16.0536 28.3229 16.9257C28.3229 17.7978 28.121 18.559 27.7178 19.2088C27.3152 19.8585 26.7476 20.3605 26.015 20.7141C25.2824 21.0682 24.4435 21.2447 23.4975 21.2447H19.4129V12.6067V12.606ZM23.3988 19.2948C24.139 19.2948 24.7314 19.0852 25.176 18.6654C25.6283 18.2462 25.8545 17.6659 25.8545 16.9257C25.8545 16.1848 25.6283 15.6051 25.176 15.1853C24.7314 14.7662 24.139 14.556 23.3988 14.556H21.8559V19.2954H23.3988V19.2948Z" fill="white"/>
</g>
<defs>
<linearGradient id="paint0_linear_1895_34486" x1="36.3348" y1="19.1311" x2="3.16296" y2="19.1311" gradientUnits="userSpaceOnUse">
<stop offset="0.276042" stop-color="#FF6786"/>
<stop offset="0.8125" stop-color="#3036E9"/>
</linearGradient>
<linearGradient id="paint1_linear_1895_34486" x1="35.5686" y1="19.1318" x2="3.90113" y2="19.1318" gradientUnits="userSpaceOnUse">
<stop offset="0.276042" stop-color="#FF6786"/>
<stop offset="0.8125" stop-color="#3036E9"/>
</linearGradient>
<linearGradient id="paint2_linear_1895_34486" x1="34.7803" y1="19.131" x2="4.66096" y2="19.131" gradientUnits="userSpaceOnUse">
<stop offset="0.276042" stop-color="#FF6786"/>
<stop offset="0.8125" stop-color="#3036E9"/>
</linearGradient>
<linearGradient id="paint3_linear_1895_34486" x1="33.9807" y1="19.1323" x2="5.42799" y2="19.1323" gradientUnits="userSpaceOnUse">
<stop offset="0.276042" stop-color="#FF6786"/>
<stop offset="0.8125" stop-color="#3036E9"/>
</linearGradient>
<linearGradient id="paint4_linear_1895_34486" x1="2.20296" y1="26.0183" x2="36.6691" y2="26.2632" gradientUnits="userSpaceOnUse">
<stop stop-color="#FD7CC4"/>
<stop offset="0.395833" stop-color="#FF7191"/>
<stop offset="1" stop-color="#FFEFF0"/>
</linearGradient>
<linearGradient id="paint5_linear_1895_34486" x1="2.98701" y1="25.7086" x2="35.8872" y2="25.9424" gradientUnits="userSpaceOnUse">
<stop stop-color="#FD7CC4"/>
<stop offset="0.395833" stop-color="#FF7191"/>
<stop offset="1" stop-color="#FFEFF0"/>
</linearGradient>
<linearGradient id="paint6_linear_1895_34486" x1="3.78841" y1="25.3847" x2="35.0825" y2="25.6071" gradientUnits="userSpaceOnUse">
<stop stop-color="#FD7CC4"/>
<stop offset="0.395833" stop-color="#FF7191"/>
<stop offset="1" stop-color="#FFEFF0"/>
</linearGradient>
<linearGradient id="paint7_linear_1895_34486" x1="4.60417" y1="25.0602" x2="34.269" y2="25.2709" gradientUnits="userSpaceOnUse">
<stop stop-color="#FD7CC4"/>
<stop offset="0.395833" stop-color="#FF7191"/>
<stop offset="1" stop-color="#FFEFF0"/>
</linearGradient>
<linearGradient id="paint8_linear_1895_34486" x1="5.2127" y1="24.8168" x2="33.6579" y2="25.0188" gradientUnits="userSpaceOnUse">
<stop stop-color="#FD7CC4"/>
<stop offset="0.395833" stop-color="#FF7191"/>
<stop offset="1" stop-color="#FFEFF0"/>
</linearGradient>
<clipPath id="clip0_1895_34486">
<rect width="38.8583" height="38.2213" fill="white"/>
</clipPath>
</defs>
</svg>
