<svg width="17" height="16" viewBox="0 0 17 16" fill="none" xmlns="http://www.w3.org/2000/svg"><path fill-rule="evenodd" clip-rule="evenodd" d="M5.348.8h6.294c2.969 0 4.05 1.081 4.05 4.05v6.294c0 2.97-1.087 4.056-4.05 4.056H5.348c-2.97 0-4.056-1.087-4.056-4.056V4.85C1.292 1.88 2.379.8 5.348.8zm1.915 9.077l.174-.388h.858l.169.388h.4l-.827-1.88h-.335l-.827 1.88h.388zm.89-.728h-.579l.288-.672.29.672zm5.937-1.152h-.382v1.88h.382v-1.88zm-.832 1.54H12.21v-.465h.695v-.346h-.695v-.382h1.007v-.347h-1.383v1.88h1.424v-.34zm-1.731-1.54h-.4l-.415 1.296-.43-1.296H9.97l-.423 1.296-.418-1.296h-.41l.66 1.886h.313l.428-1.238.43 1.238h.322l.655-1.886zm-4.847 0h-.382v1.08c0 .305-.151.473-.43.473-.277 0-.428-.168-.428-.486V8h-.382v1.075c0 .53.296.838.805.838.52 0 .816-.311.816-.85V7.997zm-2.153 0h-.382v.758h-.861v-.758h-.382v1.886h.382v-.77h.861v.77h.382V7.997zM6.1 3.207a2.395 2.395 0 104.79 0h-.335a2.06 2.06 0 01-4.12 0H6.1z" fill="#0B002E"/></svg>