<svg width="39" height="16" viewBox="0 0 39 16" fill="none" xmlns="http://www.w3.org/2000/svg"><path d="M7.326 2.05C7.775 1.491 8.096.746 8 0c-.674.031-1.477.435-1.958.963-.417.466-.802 1.242-.706 1.957.77.093 1.508-.31 1.99-.87zM8 3.106c-1.092-.062-2.022.59-2.536.59-.513 0-1.316-.559-2.182-.559A3.235 3.235 0 00.554 4.752c-1.155 1.957-.32 4.845.834 6.429.546.776 1.22 1.646 2.086 1.615.835-.031 1.156-.528 2.15-.528.996 0 1.284.528 2.183.497.899-.031 1.476-.777 2.022-1.584.642-.9.898-1.77.898-1.801-.032-.031-1.765-.653-1.765-2.578-.032-1.615 1.348-2.392 1.412-2.423C9.636 3.261 8.417 3.137 8 3.106zM17.436.9c2.375 0 4.012 1.583 4.012 3.85 0 2.298-1.67 3.882-4.076 3.882h-2.6v4.007H12.88V.899h4.557zm-2.664 6.21h2.15c1.637 0 2.568-.869 2.568-2.329 0-1.49-.93-2.329-2.567-2.329H14.74v4.659h.032zm7.157 3.137c0-1.49 1.188-2.422 3.306-2.546l2.439-.125v-.652c0-.963-.674-1.522-1.765-1.522-1.06 0-1.701.497-1.862 1.243h-1.733c.096-1.553 1.476-2.702 3.659-2.702 2.15 0 3.53 1.087 3.53 2.826v5.9H27.77v-1.397h-.032c-.514.963-1.637 1.553-2.792 1.553-1.797 0-3.017-1.056-3.017-2.578zm5.745-.776v-.683l-2.183.124c-1.09.062-1.7.528-1.7 1.273 0 .746.641 1.243 1.604 1.243 1.284 0 2.279-.839 2.279-1.957zm3.434 6.367v-1.429c.128.031.449.031.577.031.835 0 1.284-.341 1.573-1.211 0-.031.16-.528.16-.528L30.21 4.129h1.958l2.246 6.988h.032l2.247-6.988h1.925l-3.305 9.038c-.77 2.08-1.637 2.733-3.466 2.733-.129-.031-.578-.031-.738-.062z" fill="#0B002E"/></svg>