<svg width="17" height="16" viewBox="0 0 17 16" fill="none" xmlns="http://www.w3.org/2000/svg"><path d="M9.106 2.053C10.051.806 11.363.8 11.363.8s.196 1.172-.742 2.302C9.618 4.308 8.48 4.11 8.48 4.11s-.214-.948.625-2.057zM8.6 4.932c.486 0 1.388-.67 2.561-.67 2.02 0 2.815 1.44 2.815 1.44s-1.554.797-1.554 2.73c0 2.179 1.936 2.93 1.936 2.93s-1.353 3.817-3.181 3.817c-.84 0-1.493-.567-2.378-.567-.901 0-1.796.588-2.379.588-1.67 0-3.778-3.62-3.778-6.531 0-2.864 1.785-4.366 3.46-4.366 1.088 0 1.933.629 2.498.629z" fill="#0B002E"/></svg>