<svg width="24" height="26" viewBox="0 0 24 26" fill="none" xmlns="http://www.w3.org/2000/svg"><path d="M23.2 25.6s-3.77-1.484-6.821-2.673H3.551c-1.519 0-2.75-1.305-2.75-2.915V2.916C.8 1.306 2.032 0 3.55 0h16.9c1.519 0 2.75 1.306 2.75 2.916V25.6zm-3.31-9.585a.705.705 0 00-1.034-.085c-.024.021-2.412 2.145-6.856 2.145-4.389 0-6.814-2.108-6.857-2.147a.705.705 0 00-1.032.086.808.808 0 00.08 1.097c.113.102 2.83 2.52 7.809 2.52 4.98 0 7.697-2.418 7.81-2.52a.809.809 0 00.08-1.096z" fill="#fff"/><path d="M23.2 25.6s-3.77-1.484-6.821-2.673H3.551c-1.519 0-2.75-1.305-2.75-2.915V2.916C.8 1.306 2.032 0 3.55 0h16.9c1.519 0 2.75 1.306 2.75 2.916V25.6zm-3.31-9.585a.705.705 0 00-1.034-.085c-.024.021-2.412 2.145-6.856 2.145-4.389 0-6.814-2.108-6.857-2.147a.705.705 0 00-1.032.086.808.808 0 00.08 1.097c.113.102 2.83 2.52 7.809 2.52 4.98 0 7.697-2.418 7.81-2.52a.809.809 0 00.08-1.096z" fill="#fff"/></svg>