<svg width="69" height="39" viewBox="0 0 69 39" fill="none" xmlns="http://www.w3.org/2000/svg"><path d="M45.468 20.842l.666.2a1.129 1.129 0 01-.21.466.862.862 0 01-.356.277 1.28 1.28 0 01-.544.1c-.266 0-.477-.033-.654-.11a1.015 1.015 0 01-.433-.411c-.122-.189-.189-.444-.189-.744 0-.4.111-.71.322-.932.21-.222.522-.322.91-.322.31 0 .544.067.721.189.178.122.311.31.389.577l-.666.144a.388.388 0 00-.078-.166.45.45 0 00-.155-.134.435.435 0 00-.2-.044c-.166 0-.3.067-.388.21-.067.1-.1.267-.1.478 0 .267.044.455.122.555.078.1.2.155.344.155.144 0 .255-.044.322-.122.088-.1.144-.21.177-.366zm.932-.222c0-.4.111-.71.333-.932.222-.222.533-.333.933-.333.41 0 .721.11.943.322.222.222.333.521.333.92 0 .29-.044.522-.144.7a1.03 1.03 0 01-.422.422c-.178.1-.41.155-.677.155-.277 0-.5-.044-.688-.133a1.074 1.074 0 01-.444-.422c-.122-.2-.167-.41-.167-.699zm.755 0c0 .244.044.422.133.533a.45.45 0 00.378.166.476.476 0 00.377-.155c.089-.111.133-.3.133-.566 0-.233-.044-.4-.144-.5-.089-.11-.222-.155-.377-.155a.443.443 0 00-.367.167c-.088.088-.133.266-.133.51zm2.175-1.22h.989l.377 1.487.377-1.488h.988v2.442h-.622v-1.865l-.477 1.865h-.555l-.477-1.865v1.865h-.621v-2.442h.022zm3.219 0h1.254c.277 0 .477.066.61.2.134.132.2.31.2.554 0 .244-.078.444-.222.577-.144.144-.377.211-.677.211h-.41v.91h-.755v-2.453zm.755 1.043h.188c.145 0 .244-.023.31-.078.056-.056.09-.111.09-.189a.267.267 0 00-.078-.2c-.056-.055-.144-.077-.288-.077h-.211v.543h-.011zm1.709-1.043h.754v1.842h1.177v.599h-1.931v-2.442zm2.308 0h.755v2.44h-.755V19.4zm2.796 2.03h-.854l-.122.4h-.766l.921-2.442h.821l.921 2.442h-.787l-.134-.4zm-.155-.521l-.266-.877-.267.877h.533zm1.311-1.509h.699l.92 1.353V19.4h.711v2.442h-.71l-.91-1.343v1.343h-.71V19.4zm2.662 0h2.297v.599h-.766v1.842h-.755v-1.842h-.765v-.6h-.011zM36.39 23.117l2.186-.688-.71-1.576c-.521.655-1.043 1.498-1.476 2.264zm-.743-7.203L31.363 6.37 0 8.146 8.69 31.85l16.724-5.271c-1.065-1.532-1.454-3.352-.222-4.24 1.377-.999 3.452.155 4.772 1.787 1.277-2.13 4.861-7.092 5.683-8.213z" fill="#225E63"/><path d="M30.387 13.268c1.31 0 2.375-1 2.375-2.242 0-1.243-1.066-2.242-2.375-2.242-1.31 0-2.375.999-2.375 2.242 0 1.232 1.065 2.242 2.375 2.242zm-1.942.965h3.884v10.155h-3.884V14.233zm-1.921 2.963c.034.011.056 0 .056-.033v-2.575c0-.033-.022-.066-.056-.089 0 0-.51-.333-2.064-.421-.078-.045-1.443-.056-1.809 0-5.66.455-5.87 4.55-5.87 4.727v1c0 .121 0 4.305 5.87 4.671.577.045 1.698 0 1.809 0 1.354 0 2.286-.41 2.286-.41a.083.083 0 00.056-.078V21.58c0-.033-.023-.044-.045-.022 0 0-.421.333-2.264.521-.521.056-.776.034-.965 0-2.62-.444-2.741-2.352-2.741-2.352 0-.034-.011-.09-.011-.111v-.733c0-.033 0-.089.01-.11 0 0 .178-2.054 2.742-2.276h.965c1.121.144 2.031.7 2.031.7zM5.993 24.354c0 .034.022.056.056.056h3.784c.033 0 .056-.022.056-.056v-2.952c0-.033.022-.055.055-.055 0 0 6.048.433 6.048-3.618 0-3.207-3.795-3.551-5.038-3.496H6.049c-.034 0-.056.022-.056.056v10.065zm3.829-5.26v-2.652h.932s1.343.055 1.454.976c.022.067.022.522 0 .544-.178 1.076-1.343 1.132-1.343 1.132H9.822z" fill="#FEFEFE"/><path d="M30.497 29.287c.31 0 .555 0 .954-.177 1.377-.721 6.026-12.075 10.932-15.57a.337.337 0 00.089-.09c.033-.044.033-.088.033-.088s0-.233-.721-.233c-4.362-.122-8.901 9.034-11.287 12.651-.033.045-.189 0-.189 0s-1.598-1.886-2.985-2.608c-.033-.01-.189-.066-.355-.055-.111 0-.755.133-1.055.444-.355.377-.344.588-.344 1.043 0 .033.023.189.067.266.344.6 1.887 2.73 3.163 3.907.189.144.488.51 1.698.51z" fill="#2BBC5D"/><path d="M43.67 10.11h3.629c.721 0 1.298.1 1.731.289.444.2.81.477 1.088.832.288.366.5.788.621 1.265.133.477.2.988.2 1.532 0 .843-.1 1.498-.289 1.964a3.254 3.254 0 01-.799 1.177c-.344.31-.71.521-1.098.632a5.603 5.603 0 01-1.454.211h-3.63V10.11zm2.441 1.787v4.317h.6c.51 0 .876-.055 1.087-.166.211-.111.389-.311.51-.589.123-.277.19-.743.19-1.376 0-.843-.134-1.41-.411-1.72-.278-.31-.722-.466-1.365-.466h-.61zm5.505 3.507l2.33-.144c.056.377.156.665.312.865.255.322.61.477 1.076.477.344 0 .621-.077.81-.244.189-.166.289-.355.289-.566 0-.2-.09-.388-.267-.555-.177-.166-.599-.31-1.254-.455-1.076-.244-1.83-.566-2.297-.965-.466-.4-.688-.91-.688-1.532 0-.41.122-.788.355-1.154.233-.366.588-.643 1.066-.854.477-.211 1.12-.311 1.942-.311 1.01 0 1.786.189 2.308.566.533.377.843.976.943 1.798l-2.308.133c-.067-.355-.189-.61-.389-.777-.2-.166-.466-.244-.81-.244-.288 0-.5.055-.643.178a.551.551 0 00-.211.443c0 .122.055.245.177.345.111.1.389.2.822.288 1.065.233 1.83.466 2.297.7.466.232.799.532 1.01.876.21.344.31.743.31 1.176 0 .51-.144.977-.421 1.399-.278.432-.677.754-1.177.976-.499.222-1.143.333-1.908.333-1.343 0-2.276-.255-2.797-.777-.51-.521-.8-1.176-.877-1.975zm7.803 0l2.33-.144c.056.377.156.665.311.865.255.322.61.477 1.077.477.344 0 .621-.077.81-.244.188-.166.288-.355.288-.566 0-.2-.088-.388-.266-.555-.178-.166-.6-.31-1.254-.455-1.077-.244-1.831-.566-2.297-.965-.455-.4-.688-.91-.688-1.532 0-.41.122-.788.355-1.154.233-.366.588-.643 1.065-.854.477-.211 1.121-.311 1.942-.311 1.01 0 1.787.189 2.309.566.532.377.843.976.943 1.798l-2.308.133c-.067-.355-.189-.61-.389-.777-.2-.166-.466-.244-.81-.244-.289 0-.5.055-.644.178a.551.551 0 00-.21.443c0 .122.055.245.177.345.111.1.389.2.821.288 1.066.233 1.831.466 2.298.7.466.232.799.532 1.01.876.21.344.31.743.31 1.176 0 .51-.144.977-.422 1.399-.277.432-.677.754-1.176.976-.5.222-1.143.333-1.909.333-1.343 0-2.275-.255-2.796-.777-.522-.521-.81-1.176-.877-1.975z" fill="#225E63"/></svg>