<svg width="41" height="18" viewBox="0 0 41 18" fill="none" xmlns="http://www.w3.org/2000/svg"><path d="M18.346 8.57v4.915h-1.559V1.346h4.135a3.74 3.74 0 012.678 1.05 3.382 3.382 0 011.119 2.562c.02.98-.387 1.923-1.12 2.577-.722.69-1.615 1.034-2.677 1.033l-2.576.001zm0-5.73v4.238h2.614c.58.017 1.14-.21 1.543-.628a2.07 2.07 0 00.04-2.926c-.012-.015-.027-.028-.04-.04a2.033 2.033 0 00-1.543-.645l-2.614.001zm9.972 2.063c1.153 0 2.063.308 2.729.925.666.616 1 1.46.999 2.533v5.118h-1.491v-1.153h-.068c-.645.95-1.504 1.425-2.576 1.425-.915 0-1.68-.272-2.297-.814a2.601 2.601 0 01-.924-2.033c0-.86.324-1.543.974-2.051.65-.507 1.516-.763 2.602-.763.926 0 1.688.17 2.287.509v-.357a1.776 1.776 0 00-.644-1.38 2.2 2.2 0 00-1.505-.568c-.87 0-1.56.368-2.068 1.103l-1.373-.865c.757-1.085 1.874-1.629 3.355-1.629zm-2.017 6.034c-.002.404.19.782.517 1.017.345.272.773.415 1.211.406a2.489 2.489 0 001.754-.729c.517-.486.774-1.056.774-1.712-.486-.387-1.164-.581-2.033-.581-.634 0-1.161.153-1.585.459-.426.31-.638.688-.638 1.14zm14.304-5.76l-5.206 11.966h-1.61l1.933-4.187-3.424-7.778h1.694l2.475 5.966h.033l2.407-5.966h1.698v-.001zM13.713 7.429c0-.465-.038-.93-.117-1.39H7.15v2.632h3.69a3.171 3.171 0 01-1.364 2.077l2.204 1.708c1.29-1.19 2.032-2.947 2.032-5.027z" fill="#0B002E"/><path d="M7.153 14.088c1.844 0 3.397-.606 4.53-1.65l-2.204-1.707c-.613.415-1.403.653-2.326.653-1.782 0-3.295-1.201-3.836-2.82l-2.27 1.76a6.835 6.835 0 006.106 3.764z" fill="#0B002E"/><path d="M3.316 8.574a4.09 4.09 0 010-2.615V4.2H1.047a6.83 6.83 0 000 6.136l2.27-1.76z" fill="#0B002E"/><path d="M7.154 3.133a3.707 3.707 0 012.621 1.025l1.95-1.95A6.57 6.57 0 007.153.43a6.832 6.832 0 00-6.105 3.765l2.269 1.76c.542-1.619 2.055-2.821 3.837-2.821z" fill="#0B002E"/></svg>