<svg width="16" height="16" viewBox="0 0 16 16" fill="none" xmlns="http://www.w3.org/2000/svg"><g clip-path="url(#clip0_2387_799)" fill="#0B002E"><path d="M6.834 5.97l-.033.13h2.4l-.034-.13a1.168 1.168 0 00-2.333 0z"/><path fill-rule="evenodd" clip-rule="evenodd" d="M.953 5.046C.8 5.683.8 6.456.8 8c0 1.545 0 2.317.153 2.954a5.539 5.539 0 004.092 4.093c.638.153 1.41.153 2.955.153 1.545 0 2.317 0 2.954-.153a5.539 5.539 0 004.093-4.093c.153-.637.153-1.41.153-2.954 0-1.545 0-2.317-.153-2.954A5.539 5.539 0 0010.954.953C10.317.8 9.544.8 8 .8 6.455.8 5.683.8 5.045.953A5.538 5.538 0 00.953 5.046zm9.118.924l.03.13h1.7l-.459 4.272A1.708 1.708 0 019.644 11.9H6.357c-.873 0-1.606-.66-1.698-1.528L4.201 6.1h1.7l.03-.13c0-1.142.928-2.07 2.07-2.07 1.141 0 2.07.928 2.07 2.07z"/></g><defs><clipPath id="clip0_2387_799"><path fill="#fff" d="M0 0h16v16H0z"/></clipPath></defs></svg>