<svg width="82" height="18" viewBox="0 0 82 18" fill="none" xmlns="http://www.w3.org/2000/svg"><path fill-rule="evenodd" clip-rule="evenodd" d="M.452 0A.452.452 0 000 .452v2.696c0 .25.202.452.452.452h11.457a.452.452 0 00.436-.337l.707-2.697A.452.452 0 0012.615 0H.452zM3.32 18H.452A.452.452 0 010 17.548V7.651C0 7.402.202 7.2.452 7.2h10.277c.296 0 .512.28.437.566l-.706 2.697a.452.452 0 01-.437.337h-5.8a.452.452 0 00-.452.451v6.297c0 .25-.202.452-.451.452zM18.748 0c.25 0 .452.202.452.452v17.096c0 .25-.202.452-.452.452h-2.696a.452.452 0 01-.452-.452V.452c0-.25.202-.452.452-.452h2.696z" fill="#FF4C5C"/><path d="M35.581 0h2.767c.25 0 .452.202.452.452v17.096c0 .25-.202.452-.452.452h-1.832a.903.903 0 01-.696-.327l-8.55-10.32a.226.226 0 00-.4.144v10.051c0 .25-.202.452-.451.452h-2.767a.452.452 0 01-.452-.452V.452c0-.25.202-.452.452-.452h1.832c.269 0 .524.12.695.327l8.55 10.32c.136.164.4.068.4-.143V.452c0-.25.203-.452.452-.452zM60.4 9a9 9 0 11-18 0 9 9 0 0118 0zM45.98 9a5.42 5.42 0 1010.84 0 5.42 5.42 0 00-10.84 0zm35.568 9h-2.696a.452.452 0 01-.452-.452V7.836a.226.226 0 00-.406-.137l-4.454 5.877a.677.677 0 01-1.08 0L68.006 7.7a.226.226 0 00-.406.137v9.712c0 .25-.202.452-.452.452h-2.696a.452.452 0 01-.452-.452V.461c0-.249.201-.45.45-.452l2.01-.008c.143 0 .277.066.363.179l5.997 7.913c.09.119.27.119.36 0L79.164.197a.451.451 0 01.36-.179h2.024c.25 0 .452.202.452.452v17.078c0 .25-.202.452-.452.452z" fill="#FF4C5C"/></svg>