<svg width="114" height="40" viewBox="0 0 114 40" fill="none" xmlns="http://www.w3.org/2000/svg"><g clip-path="url(#clip0_1895_34504)"><path d="M111.734 8.94l2.464-6.537h-.936l-1.777 4.927-1.776-4.927h-.959l2.285 6.1-.071.19c-.19.58-.522.853-1.173.853a3.13 3.13 0 01-.675-.072v.818c.19.035.462.06.723.06.96 0 1.516-.415 1.895-1.41m-6.835-5.863c1.208 0 1.86.948 1.86 2.24 0 1.29-.652 2.225-1.86 2.225-1.208 0-1.859-.936-1.859-2.226s.651-2.239 1.859-2.239zm.19-.781c-.793 0-1.481.284-1.954.948V0h-.888v8.22h.853v-.852c.438.651 1.149.96 2.014.96 1.363 0 2.582-1.067 2.582-3.01 0-1.942-1.196-3.02-2.605-3.02m-10.602.781c1.208 0 1.86.948 1.86 2.24 0 1.29-.652 2.225-1.86 2.225-1.208 0-1.86-.936-1.86-2.226s.652-2.239 1.86-2.239zm-.19-.781c-1.41 0-2.606 1.078-2.606 3.02 0 1.943 1.22 3.01 2.583 3.01.864 0 1.576-.309 2.014-.96v.853h.853V0h-.888v3.246c-.473-.664-1.161-.948-1.954-.948M85.77 4.88c.154-1.161.854-1.813 1.837-1.813s1.67.629 1.718 1.813h-3.554zm-.936.427c0 1.907 1.185 3.02 2.748 3.02 1.243 0 2.298-.616 2.559-1.87h-.936c-.213.746-.865 1.1-1.646 1.1-1.125 0-1.753-.936-1.802-1.954h4.478c.011-.13.011-.273.011-.331 0-1.978-1.136-2.973-2.652-2.973-1.611 0-2.76 1.173-2.76 3.01m-1.03-2.985c-.201-.012-.308-.012-.414-.012-.687 0-1.457.344-1.836 1.161V2.407h-.853v5.817h.888V5.013c0-1.125.758-1.764 1.67-1.764.153 0 .33 0 .544.011v-.936h.002zM74.39 4.883c.153-1.161.853-1.813 1.836-1.813.983 0 1.67.628 1.718 1.813H74.39zm-.937.427c0 1.907 1.185 3.02 2.748 3.02 1.243 0 2.297-.616 2.559-1.87h-.936c-.214.746-.865 1.1-1.646 1.1-1.125 0-1.753-.936-1.802-1.954h4.478c.011-.13.011-.273.011-.332 0-1.977-1.138-2.972-2.652-2.972-1.612 0-2.76 1.173-2.76 3.009m-5.306-1.943l1.338 4.857h1.138l1.694-5.816h-.9l-1.374 4.975-1.35-4.975h-1.066l-1.35 4.975-1.374-4.975h-.925l1.694 5.816h1.138l1.338-4.857h-.001zM60.043 7.55c-1.208 0-1.86-.936-1.86-2.226s.652-2.24 1.86-2.24c1.208 0 1.86.949 1.86 2.24 0 1.291-.652 2.226-1.86 2.226zm0 .782c1.635 0 2.796-1.138 2.796-3.01 0-1.87-1.161-3.02-2.796-3.02-1.634 0-2.795 1.15-2.795 3.02 0 1.872 1.16 3.01 2.795 3.01zm-7-.782c-1.207 0-1.859-.948-1.859-2.239s.652-2.226 1.86-2.226c1.208 0 1.86.936 1.86 2.226s-.652 2.24-1.86 2.24zm.19.782c1.41 0 2.607-1.078 2.607-3.021 0-1.943-1.22-3.009-2.583-3.009-.865 0-1.576.308-2.014.96v-.853h-.853v7.889h.888V7.384c.473.663 1.161.948 1.954.948m-4.975-3.78c0-1.575-.864-2.25-2.014-2.25-.936 0-1.528.403-1.955 1.03-.32-.663-.924-1.03-1.776-1.03-.851 0-1.433.45-1.764.971V2.41h-.853v5.816h.888V4.968c0-1.185.698-1.883 1.504-1.883.9 0 1.35.473 1.35 1.588v3.554h.888v-3.46c0-1.112.758-1.68 1.505-1.68.876 0 1.35.473 1.35 1.504v3.637h.876V4.556l.001-.003zm-14.675.332c.153-1.16.853-1.812 1.836-1.812.983 0 1.67.628 1.718 1.812h-3.554zm-.937.427c0 1.908 1.185 3.02 2.748 3.02 1.243 0 2.298-.616 2.56-1.87h-.937c-.213.746-.865 1.1-1.646 1.1-1.125 0-1.753-.935-1.801-1.953h4.477c.011-.13.011-.274.011-.332 0-1.978-1.136-2.973-2.652-2.973-1.611 0-2.76 1.173-2.76 3.01m64.632 15.774h2.462v-2.463h-2.462v2.463zm-54.061 6.102l-5.14-1.241c-1.733-.406-2.633-1.37-2.633-2.805 0-1.99 1.842-3.319 4.583-3.319 2.74 0 4.517 1.413 4.71 3.727l.022.3h2.184v-.343c-.107-3.34-2.933-5.717-6.915-5.717s-6.744 2.27-6.744 5.374c0 2.483 1.52 4.175 4.239 4.882l5.117 1.241c1.733.408 2.633 1.392 2.633 2.827 0 2.097-1.948 3.404-5.096 3.404s-5.053-1.392-5.267-3.81l-.022-.3h-2.184v.322c.193 3.575 3.062 5.78 7.451 5.78 4.39 0 7.258-2.161 7.258-5.395 0-2.505-1.498-4.26-4.196-4.924M56.64 23.36c-3.79 0-6.338 2.849-6.338 7.066s2.547 7.043 6.338 7.043c3.79 0 6.38-2.89 6.38-7.043 0-4.153-2.612-7.066-6.38-7.066zm0 12.098c-2.548 0-4.197-1.97-4.197-5.032 0-3.062 1.627-5.097 4.197-5.097 2.569 0 4.196 1.97 4.196 5.097 0 3.125-1.605 5.032-4.196 5.032zm9.656 1.777h2.077v-19.14h-2.077v19.14zm26.656-13.873c-1.65 0-2.955.663-3.618 2.077v-1.884H87.3v13.68h2.077v-7.75c0-2.27.942-4.004 3.212-4.004.663 0 1.414.086 1.907.171v-2.077a5.935 5.935 0 00-1.541-.215m4.495 13.874h2.098v-13.68H97.45v13.68zm13.104-7.58l-2.74-.534c-1.82-.364-2.055-1.135-2.055-1.778 0-1.241 1.199-2.035 2.997-2.035 1.798 0 2.955.814 3.062 2.226l.022.28h2.141l-.022-.344c-.107-1.884-1.541-4.11-5.203-4.11-2.955 0-5.117 1.691-5.117 4.026 0 1.97 1.2 3.19 3.661 3.704l2.72.534c1.82.386 2.077 1.093 2.077 1.756 0 1.328-1.2 2.12-3.277 2.12s-3.361-.9-3.469-2.42l-.022-.299h-2.141l.022.364c.171 2.654 2.334 4.325 5.609 4.325s5.396-1.67 5.396-4.11c0-1.949-1.22-3.19-3.661-3.705zM77.796 23.36c-2.335 0-5.139 1.071-5.332 4.11l-.022.344h2.098l.022-.28c.235-1.861 1.862-2.247 3.232-2.247 1.541 0 3.405.472 3.405 2.655v.664l-4.775.813c-2.848.514-4.39 1.927-4.39 4.11 0 1.799 1.2 3.898 4.54 3.898 1.927 0 3.597-.792 4.603-2.226v2.034h2.035v-9.42c0-2.804-2.035-4.453-5.416-4.453m-1.093 7.9l4.496-.77v.749c0 2.955-2.248 4.282-4.454 4.282-1.627 0-2.59-.749-2.59-1.948 0-1.2.813-1.991 2.546-2.312" fill="#0B002E"/><path d="M3.12 19.35a.34.34 0 00-.257.13A11.795 11.795 0 000 27.207c0 6.247 5.123 11.832 11.37 11.832 2.661 0 4.756-1.657 4.756-4.318 0-2.271-1.645-3.87-4.046-4.886l-3.596-1.526c-2.898-1.23-5.29-3.455-5.29-6.591 0-.532.095-1.455.202-1.976.048-.23-.1-.39-.275-.39m9.172-3.976c-2.661 0-4.756 1.656-4.756 4.319 0 2.271 1.645 3.87 4.046 4.886l3.596 1.526c2.898 1.23 5.29 3.455 5.29 6.59 0 .533-.096 1.456-.202 1.977-.047.23.1.39.274.39a.34.34 0 00.258-.13 11.794 11.794 0 002.863-7.725c0-6.248-5.123-11.832-11.37-11.832" fill="#FF6432"/></g><defs><clipPath id="clip0_1895_34504"><path fill="#fff" d="M0 0h114v40H0z"/></clipPath></defs></svg>