<svg width="56" height="16" viewBox="0 0 56 16" fill="none" xmlns="http://www.w3.org/2000/svg"><path fill-rule="evenodd" clip-rule="evenodd" d="M7.597.876c1.8 0 3.467.98 3.238 3.416C10.56 7.186 9.009 8.79 6.56 8.796H4.423c-.306 0-.458.248-.535.763l-.413 2.627c-.064.395-.267.592-.566.592H.918c-.318 0-.427-.204-.357-.655l1.642-10.54c.082-.522.273-.713.63-.713h4.764v.006zM4.353 6.52h1.622c1.011-.04 1.685-.74 1.755-2.005.038-.783-.49-1.343-1.33-1.336l-1.527.006-.521 3.334zm11.889 5.457c.184-.165.369-.248.343-.044l-.063.49c-.032.254.07.388.305.388h1.769c.299 0 .445-.121.515-.58l1.088-6.837c.057-.344-.032-.51-.293-.51h-1.947c-.178 0-.26.096-.305.363l-.07.42c-.038.216-.14.26-.229.038-.33-.782-1.17-1.132-2.347-1.1-2.73.057-4.561 2.124-4.758 4.777-.153 2.055 1.316 3.664 3.257 3.664 1.405-.006 2.035-.42 2.735-1.069zm-1.482-1.05c-1.17 0-1.991-.934-1.82-2.086.172-1.145 1.266-2.086 2.443-2.086s1.991.935 1.82 2.086c-.172 1.145-1.266 2.087-2.443 2.087zm8.893-6.068h-1.794c-.369 0-.522.274-.4.617l2.226 6.514-2.182 3.098c-.185.261-.038.496.216.496h2.016c.026 0 .045.007.07.007a.622.622 0 00.529-.3l6.844-9.815c.21-.299.115-.617-.235-.617h-1.909c-.324 0-.458.127-.642.401l-2.856 4.135-1.273-4.148c-.076-.254-.26-.388-.61-.388zM38.29.876c1.8 0 3.467.98 3.238 3.416-.273 2.894-1.825 4.497-4.275 4.504h-2.137c-.305 0-.458.248-.534.763l-.414 2.627c-.063.395-.267.592-.566.592h-1.991c-.318 0-.426-.204-.356-.655l1.647-10.54c.083-.516.274-.713.63-.713l4.758.006zM35.052 6.52h1.623c1.011-.039 1.685-.738 1.755-2.004.038-.783-.49-1.343-1.33-1.336l-1.526.006-.522 3.334zm11.883 5.457c.185-.165.37-.248.344-.044l-.064.49c-.032.254.07.388.305.388h1.769c.299 0 .445-.121.515-.58l1.088-6.837c.057-.344-.032-.51-.293-.51h-1.94c-.178 0-.26.096-.305.363l-.07.42c-.038.216-.14.26-.23.038-.33-.782-1.17-1.132-2.34-1.1-2.73.057-4.561 2.124-4.758 4.777-.153 2.055 1.316 3.664 3.257 3.664 1.405 0 2.035-.413 2.741-1.062l-.019-.007zm-1.476-1.05c-1.17 0-1.99-.934-1.819-2.086.172-1.145 1.266-2.086 2.443-2.086 1.17 0 1.991.935 1.82 2.086-.173 1.145-1.273 2.087-2.444 2.087zm8.15 1.89h-2.055a.242.242 0 01-.242-.242v-.031l1.794-11.355a.352.352 0 01.337-.274h2.055c.133 0 .241.108.241.242v.032l-1.794 11.355a.341.341 0 01-.337.273z" fill="#0B002E"/></svg>