<svg width="39" height="39" viewBox="0 0 39 39" fill="none" xmlns="http://www.w3.org/2000/svg"><g clip-path="url(#clip0_1895_34483)"><path d="M29.17 2.867H9.051L0 18.883l9.052 16.016H29.17l9.052-16.016L29.17 2.867z" fill="#0B002E"/><mask id="mask0_1895_34483" style="mask-type:alpha" maskUnits="userSpaceOnUse" x="0" y="2" width="39" height="33"><path d="M29.17 2.867H9.051L0 18.883l9.052 16.016H29.17l9.052-16.016L29.17 2.867z" fill="#0B002E"/></mask><g mask="url(#mask0_1895_34483)"><path transform="rotate(32 28.01 2.548)" fill="url(#paint0_linear_1895_34483)" d="M28.011 2.548h24.207v38.434H28.011z"/><path transform="rotate(-148 8.425 35.866)" fill="url(#paint1_linear_1895_34483)" d="M8.425 35.866h24.207v38.661H8.425z"/></g><path d="M14.46 26.899h0c-.247 0-.447.2-.447.446v.581c0 .247.2.447.446.447h0c.248 0 .447-.2.447-.447v-.58c0-.247-.2-.447-.446-.447zm8.674 0h0c-.247 0-.448.2-.448.446v.581c0 .247.2.447.447.447h0c.247 0 .447-.2.447-.447v-.58c0-.247-.2-.447-.446-.447zm-5.782 0h-.001c-.247 0-.447.2-.447.446v.581c0 .247.2.447.447.447h0c.247 0 .447-.2.447-.447v-.58c0-.247-.2-.447-.446-.447zm3.854 0h0c-.247 0-.447.2-.447.446v.581c0 .247.2.447.446.447h.001c.247 0 .447-.2.447-.447v-.58c0-.247-.2-.447-.447-.447z" stroke="#fff" stroke-width=".392"/><path d="M19.795 26.899v1.474m-3.855-1.474v1.474-1.474zm8.674 0v1.474-1.474zm-5.783 0v1.474-1.474z" stroke="#fff" stroke-width=".392" stroke-linecap="round"/><path d="M12.993 24.956h.98v-5.758h2.186v-.912h-5.36v.912h2.194v5.758zm5.298-.912v-5.758h-.98v6.67h4.515v-.912H18.29zm6.983 1.019c1.574 0 2.427-.854 2.427-1.981 0-1.194-.921-1.64-2.251-1.951-1.098-.263-1.67-.476-1.67-1.097 0-.535.524-1.01 1.271-1.01.68 0 1.35.3 1.913.815l.563-.738c-.64-.562-1.408-.941-2.437-.941-1.34 0-2.31.844-2.31 1.961 0 1.204.903 1.612 2.262 1.932 1.116.252 1.67.495 1.67 1.126 0 .534-.476 1.02-1.399 1.02-.902 0-1.602-.37-2.194-.932l-.592.728c.709.68 1.63 1.068 2.747 1.068zm-5.04-13.094c.355-.993.203-2.303-.666-3.153a3.045 3.045 0 00-4.244-.005 2.906 2.906 0 00-.007 4.166c.894.876 2.164 1.128 3.3.63l.563.55.02.02.792-.135-.004.81.823.002-.103.799.41.4.002.002.03-.03c.144.128.098.07.12.07l1.409.042c.116 0 .218-.084.218-.198l-.055-1.391c0-.021.064.028-.066-.113l-.012.01h-.001l-2.53-2.476zm-3.252-1.417a.787.787 0 01-1.097 0 .747.747 0 010-1.073.788.788 0 011.097 0 .746.746 0 010 1.073z" fill="#fff"/></g><defs><linearGradient id="paint0_linear_1895_34483" x1="40.114" y1="2.548" x2="40.114" y2="40.982" gradientUnits="userSpaceOnUse"><stop stop-color="#01052F"/><stop offset="1" stop-color="#404362"/></linearGradient><linearGradient id="paint1_linear_1895_34483" x1="20.528" y1="35.866" x2="20.528" y2="74.527" gradientUnits="userSpaceOnUse"><stop stop-color="#01052F"/><stop offset="1" stop-color="#404362"/></linearGradient><clipPath id="clip0_1895_34483"><path fill="#fff" transform="translate(0 2.867)" d="M0 0h38.221v32.488H0z"/></clipPath></defs></svg>