<svg width="37" height="12" viewBox="0 0 37 12" fill="none" xmlns="http://www.w3.org/2000/svg"><path d="M16.35 11.805h-2.937L15.249.522h2.938L16.35 11.805zM10.942.522l-2.8 7.76-.332-1.67-.988-5.074S6.702.522 5.428.522H.798L.744.713s1.416.295 3.073 1.29l2.552 9.803h3.06L14.104.522h-3.161zm23.105 11.283h2.697L34.392.522h-2.36c-1.091 0-1.357.841-1.357.841l-4.381 10.442h3.062l.612-1.676h3.735l.344 1.676zm-3.232-3.99l1.543-4.223.868 4.222h-2.412zm-4.291-4.58l.419-2.422S25.649.32 24.3.32c-1.458 0-4.92.637-4.92 3.735 0 2.915 4.063 2.951 4.063 4.482 0 1.531-3.644 1.257-4.847.291l-.437 2.534s1.312.637 3.316.637c2.005 0 5.029-1.038 5.029-3.863 0-2.933-4.1-3.207-4.1-4.482 0-1.276 2.862-1.112 4.119-.42z" fill="#0B002E"/><path d="M7.81 6.61l-.99-5.074S6.702.52 5.428.52H.797L.743.711s2.225.461 4.36 2.19C7.143 4.55 7.809 6.61 7.809 6.61z" fill="#0B002E"/></svg>